<?xml version="1.0" encoding="UTF-8"?>
<svg id="Capa_2" data-name="Capa 2" xmlns="http://www.w3.org/2000/svg" viewBox="0 0 191.3 191.3">
  <defs>
    <style>
      .cls-1 {
        fill: #d88ab6;
      }

      .cls-1, .cls-2, .cls-3, .cls-4, .cls-5, .cls-6, .cls-7, .cls-8, .cls-9, .cls-10, .cls-11, .cls-12 {
        fill-rule: evenodd;
      }

      .cls-2 {
        fill: #80403a;
      }

      .cls-3 {
        fill: #f7def5;
      }

      .cls-13 {
        fill: #fff;
      }

      .cls-4 {
        fill: #d889b6;
      }

      .cls-5 {
        fill: #d88cb5;
      }

      .cls-6 {
        fill: #eddadc;
      }

      .cls-7 {
        fill: #f28ce5;
      }

      .cls-8 {
        fill: #f19ee7;
      }

      .cls-9 {
        fill: #985c40;
      }

      .cls-10 {
        fill: #d0d0d1;
      }

      .cls-11 {
        fill: #d3d4d4;
      }

      .cls-12 {
        fill: #9c734a;
      }
    </style>
  </defs>
  <g id="Layer_1" data-name="Layer 1">
    <g>
      <path class="cls-13" d="M191.3,94.47v2.36c-.03.16-.07.31-.1.46-.06.42-.08.85-.16,1.27-.66,3.43-2.36,6.28-4.88,8.67-.34.33-.7.63-1.07.97.54,1.16,1.06,2.3,1.62,3.44.37.74.79,1.47,1.42,2.05.27.24.2.58-.13.7-.82.29-1.5.82-2.13,1.38-.69.61-1.35,1.24-2.02,1.87-.26.24-.51.49-.77.73.1.21.18.37.26.53,1.62,3.16,2.22,6.48,1.66,10-.46,2.96-1.72,5.55-3.72,7.77-1.99,2.2-4.45,3.69-7.26,4.6-.17.05-.33.12-.51.19.03,1.07.05,2.1.11,3.12.06,1.06.12,2.12.56,3.12.17.39-.02.59-.46.63-.5.04-1.02.07-1.5.19-1.52.36-2.94.99-4.39,1.55-.03,0-.04.04-.08.08,0,.08,0,.18.02.28.15,1.99.06,3.96-.46,5.9-.73,2.75-2.08,5.17-4.14,7.13-3.25,3.09-7.17,4.49-11.64,4.35-.47-.01-.94-.05-1.43-.07-.55,1.53-1.23,2.99-1.59,4.56-.1.44-.14.91-.16,1.36-.02.52-.2.65-.72.47-.37-.13-.75-.28-1.13-.32-1.17-.12-2.35-.2-3.52-.28-.5-.03-1.01,0-1.53,0-1.52,4.85-4.41,8.54-9.16,10.49-4.75,1.96-9.41,1.41-13.9-.98-.8.86-1.59,1.67-2.34,2.51-.65.73-1.29,1.48-1.63,2.43-.12.34-.45.4-.7.12-.53-.58-1.19-.99-1.88-1.33-1.17-.57-2.37-1.11-3.56-1.65-.03-.01-.06,0-.1,0-.52.55-1.01,1.11-1.55,1.63-2.29,2.22-4.99,3.69-8.14,4.27-.58.1-1.15.19-1.73.29h-1.97c-.16-.03-.31-.07-.48-.09-1.01-.1-2.01-.27-2.98-.57-3.05-.95-5.59-2.68-7.67-5.09-.14-.16-.28-.31-.44-.5-.93.43-1.85.83-2.75,1.26-1,.49-2.01.97-2.79,1.8-.24.26-.55.17-.68-.19-.24-.64-.62-1.19-1.04-1.71-.35-.42-.7-.83-1.06-1.22-.61-.66-1.23-1.3-1.85-1.96-4.52,2.4-9.17,2.91-13.9.96-4.74-1.95-7.64-5.63-9.14-10.48-.14-.01-.25-.04-.36-.03-1.23.04-2.45.06-3.68.14-.75.05-1.49.17-2.2.47-.46.2-.68.05-.66-.47,0-.62-.08-1.21-.28-1.79-.47-1.35-.96-2.68-1.45-4.02-.01-.04-.06-.07-.11-.13-.17,0-.35,0-.53.03-1.53.15-3.04.07-4.55-.22-3.49-.68-6.47-2.29-8.79-5-2.72-3.16-3.93-6.86-3.79-11.01.01-.47,0-.94,0-1.47-1.05-.39-2.15-.81-3.26-1.2-.87-.31-1.75-.55-2.68-.54-.44,0-.55-.21-.41-.65.14-.44.31-.88.36-1.32.12-1.09.19-2.18.25-3.28.03-.54,0-1.08,0-1.64-4.83-1.51-8.52-4.4-10.48-9.14-1.97-4.75-1.42-9.42.96-13.92-.69-.66-1.34-1.3-2.02-1.92-.9-.81-1.78-1.65-2.94-2.09-.33-.12-.35-.44-.07-.71.46-.43.82-.94,1.1-1.49.46-.88.89-1.79,1.32-2.69.2-.43.39-.86.59-1.32-.15-.13-.29-.25-.42-.37-3.27-2.81-5.25-6.31-5.72-10.63-.02-.2-.11-.39-.17-.59v-1.57c.07-.29.16-.59.19-.9.12-1.04.31-2.07.64-3.07.98-2.99,2.73-5.46,5.11-7.49.13-.12.26-.23.38-.35-.19-.43-.36-.83-.54-1.21-.28-.62-.56-1.25-.87-1.87-.44-.88-.88-1.75-1.63-2.44-.27-.25-.19-.55.16-.69.83-.31,1.52-.84,2.17-1.42.75-.66,1.47-1.36,2.2-2.04.19-.18.36-.36.54-.53-2.39-4.53-2.91-9.18-.95-13.92,1.96-4.74,5.65-7.63,10.5-9.12,0-.31.01-.58,0-.86-.09-1.84.06-3.71-.67-5.47-.13-.32.05-.54.4-.56.23-.01.46,0,.68-.03,1.89-.25,3.58-1.12,5.36-1.73,0-.16,0-.29,0-.42-.13-1.38-.09-2.75.11-4.11.5-3.36,1.91-6.29,4.32-8.69,3.16-3.13,7.04-4.56,11.46-4.53.58,0,1.17.06,1.8.09.49-1.38.98-2.73,1.44-4.09.21-.62.33-1.26.29-1.93-.03-.38.25-.56.62-.4.58.25,1.18.39,1.8.45.41.04.81.09,1.22.11,1.08.04,2.15.07,3.25.11,1.52-4.87,4.41-8.56,9.15-10.51,4.75-1.96,9.42-1.42,13.94.98.95-1.04,1.89-2.04,2.8-3.08.49-.55.9-1.16,1.16-1.86.13-.35.44-.42.69-.14.65.71,1.47,1.15,2.3,1.56.98.48,1.99.92,2.99,1.38.07.04.15.05.26.09.13-.15.26-.3.38-.45,2.71-3.13,6.06-5.1,10.2-5.64.33-.04.66-.12,1-.18h1.57c.4.06.8.14,1.2.19,3.72.47,6.83,2.15,9.43,4.82.4.41.77.83,1.18,1.27.95-.43,1.88-.83,2.79-1.28.99-.48,1.98-.96,2.74-1.79.24-.25.53-.15.67.22.26.67.65,1.25,1.12,1.78.64.74,1.31,1.46,1.98,2.18.29.31.59.6.88.9,4.52-2.4,9.17-2.91,13.91-.95,4.75,1.96,7.64,5.65,9.13,10.49.16,0,.29.02.42.02.79-.02,1.57-.03,2.36-.07,1.21-.06,2.42-.09,3.56-.6.34-.15.53.04.56.44.05.54.05,1.09.21,1.6.47,1.46,1.02,2.9,1.54,4.35,0,.02.05.04.09.07.13,0,.28-.02.42-.02,1.96-.13,3.9-.05,5.8.49,5.42,1.56,9.01,5.03,10.73,10.39.58,1.79.8,3.64.68,5.52-.03.42-.04.84-.06,1.3,1.28.46,2.52.93,3.77,1.36.73.25,1.47.42,2.26.39.37-.02.53.23.41.58-.11.34-.26.68-.33,1.02-.26,1.21-.29,2.44-.3,3.67,0,.53,0,1.07,0,1.62,4.84,1.5,8.52,4.41,10.47,9.15,1.95,4.73,1.41,9.39-.96,13.85.05.08.06.12.1.16,1.04.95,2.06,1.92,3.12,2.85.48.42,1.02.76,1.62.99.42.16.49.45.17.74-.62.58-1.04,1.3-1.41,2.05-.51,1.04-.99,2.1-1.47,3.16-.05.1-.07.21-.11.31.1.09.17.15.25.22,1.33,1.1,2.5,2.36,3.43,3.82,1.35,2.12,2.25,4.39,2.42,6.93,0,.09.05.18.08.27ZM134.68,37.39c-.29.09-.53.18-.78.25-1.21.37-2.47.49-3.73.58-1.86.14-3.72.26-5.55.69-1.18.28-2.35.59-3.45,1.1-.96.44-1.84,1-2.58,1.76-.03.04-.07.07-.11.11-.15.16-.32.23-.53.15-.21-.08-.27-.26-.27-.48.02-.74-.08-1.47-.28-2.18-.61-2.26-1.79-4.21-3.21-6.03-.75-.95-1.55-1.87-2.33-2.79-.92-1.11-1.81-2.24-2.42-3.57-.01-.03-.05-.03-.11-.06-.98,1-2.21,1.67-3.44,2.32-.61.32-1.22.63-1.84.94-1.56.77-3.03,1.69-4.4,2.77-1.49,1.18-2.79,2.53-3.52,4.33-.01.03-.02.06-.04.09-.19.32-.56.33-.75.02-.04-.07-.07-.15-.1-.22-.41-1-1.03-1.86-1.76-2.65-1.06-1.13-2.27-2.09-3.59-2.89-1.17-.71-2.39-1.36-3.61-2-1.46-.77-2.95-1.51-4.16-2.66-.02-.02-.06-.02-.06-.02-.42.67-.79,1.37-1.25,2-.77,1.02-1.58,2.01-2.41,2.98-1.15,1.35-2.24,2.74-3.09,4.3-.67,1.24-1.24,2.53-1.46,3.94-.07.47-.08.94-.11,1.42-.01.19-.06.36-.25.44-.21.09-.38.01-.53-.14-.1-.11-.2-.21-.31-.31-1.21-1.12-2.66-1.78-4.21-2.24-2.24-.67-4.54-.94-6.87-1.09-1.59-.1-3.17-.24-4.67-.82-.04-.02-.09,0-.16,0-.03.34-.05.68-.09,1.02-.18,1.42-.61,2.78-1.05,4.13-.68,2.06-1.29,4.12-1.5,6.29-.12,1.24-.13,2.49.15,3.71.12.51.31,1,.47,1.5.06.2.09.39-.08.55-.17.16-.35.15-.54.05-.03-.01-.06-.02-.09-.03-1.1-.46-2.26-.63-3.45-.65-1.33-.02-2.64.17-3.95.43-1.61.32-3.15.88-4.72,1.36-1.41.44-2.82.84-4.31.9-.04,0-.08.04-.15.06.1.31.21.62.3.93.38,1.38.48,2.8.59,4.22.1,1.47.22,2.94.53,4.38.52,2.47,1.23,4.87,3.12,6.7.15.14.18.34.07.49-.08.11-.26.16-.39.23-.04.02-.1,0-.15,0-1.09,0-2.14.22-3.16.61-1.85.71-3.53,1.72-5.06,2.96-.87.7-1.71,1.43-2.56,2.14-1.15.96-2.31,1.88-3.68,2.51-.03,0-.03.05-.04.06.4.53.85,1.02,1.17,1.58.67,1.13,1.3,2.28,1.89,3.45.83,1.64,1.77,3.21,2.9,4.66,1.19,1.51,2.54,2.82,4.36,3.56.06.03.12.05.17.09.21.17.21.47,0,.64-.09.07-.2.11-.3.16-1.07.45-1.99,1.12-2.82,1.93-1.51,1.48-2.69,3.21-3.7,5.06-.57,1.03-1.07,2.1-1.63,3.14-.56,1.04-1.16,2.06-1.99,2.91-.04.04-.07.1-.12.19,1.03.44,1.92,1.04,2.76,1.72.94.76,1.87,1.53,2.79,2.33,1.21,1.04,2.5,1.96,3.91,2.71,1.25.67,2.54,1.22,3.96,1.41.4.05.82.05,1.22.07.21,0,.39.06.48.27.08.21.02.39-.15.53-.03.02-.05.04-.07.07-.69.69-1.23,1.49-1.67,2.36-.67,1.38-1.04,2.85-1.36,4.34-.36,1.71-.43,3.44-.58,5.17-.12,1.39-.26,2.77-.77,4.09-.02.06-.02.12-.03.21.1.02.17.03.25.04.67.09,1.34.11,1.98.28,1.43.38,2.84.8,4.24,1.25,1.76.55,3.54.96,5.37,1.11,1.63.13,3.24,0,4.78-.63.38-.16.65-.05.68.26.01.12-.02.26-.07.38-.71,1.75-.76,3.57-.56,5.41.2,1.76.63,3.47,1.18,5.16.48,1.47.99,2.95,1.25,4.49.08.51.13,1.03.2,1.56.42-.13.83-.27,1.23-.37,1.21-.3,2.46-.42,3.7-.49,2.06-.12,4.11-.36,6.11-.89,1.92-.52,3.72-1.25,5.15-2.71.14-.15.29-.26.52-.17.25.1.27.3.27.52,0,1.14.24,2.24.65,3.3.69,1.77,1.65,3.38,2.84,4.86.79,1,1.64,1.96,2.45,2.95.72.87,1.42,1.76,1.96,2.76.13.24.25.48.36.7.69-.49,1.32-1.01,2.02-1.43,1.04-.62,2.12-1.17,3.2-1.72,1.54-.77,3.01-1.66,4.38-2.72,1.56-1.21,2.92-2.58,3.68-4.45.08-.2.2-.33.43-.33.27,0,.36.18.45.38.55,1.33,1.42,2.42,2.47,3.38,1.54,1.41,3.28,2.55,5.14,3.51,1.94,1.01,3.97,1.87,5.61,3.42.05-.09.1-.16.13-.23.37-.81.85-1.55,1.4-2.25.6-.76,1.21-1.51,1.83-2.25,1.14-1.34,2.27-2.67,3.13-4.21.74-1.32,1.4-2.67,1.65-4.18.09-.51.11-1.04.15-1.56,0-.19.04-.36.24-.44.21-.09.38-.04.53.12.05.05.09.09.14.14.55.56,1.19,1.02,1.89,1.4,2.09,1.12,4.36,1.57,6.67,1.88,1.22.16,2.45.2,3.67.31,1.24.12,2.47.27,3.64.73.06.02.12.02.2.03.02-.1.05-.17.05-.25.03-.91.2-1.79.45-2.66.4-1.38.84-2.75,1.26-4.13.55-1.8.92-3.65.97-5.54.04-1.35-.12-2.68-.63-3.95-.1-.23-.21-.46.02-.68.21-.19.42-.09.64-.01.46.15.93.32,1.41.42,1.71.38,3.42.23,5.12-.05,1.72-.28,3.37-.81,5.02-1.35,1.31-.42,2.62-.83,3.99-1,.33-.04.67-.06,1.03-.09-.12-.4-.24-.75-.34-1.12-.38-1.45-.48-2.94-.57-4.43-.12-1.93-.39-3.84-.9-5.71-.4-1.45-.93-2.84-1.85-4.04-.26-.34-.56-.64-.85-.96-.13-.14-.19-.31-.12-.5.06-.2.23-.26.42-.27.05,0,.1,0,.15,0,1.01,0,1.99-.19,2.94-.53,1.9-.68,3.61-1.7,5.18-2.96,1.1-.88,2.16-1.81,3.25-2.7.88-.73,1.8-1.41,2.85-1.91.11-.05.22-.11.33-.17-.39-.5-.81-.95-1.11-1.46-.77-1.31-1.5-2.65-2.2-4-.89-1.72-1.92-3.36-3.18-4.83-.97-1.14-2.08-2.14-3.46-2.79-.16-.08-.33-.13-.49-.22-.35-.19-.34-.57,0-.77.06-.03.12-.05.18-.08.93-.39,1.76-.95,2.5-1.62,1.05-.95,1.91-2.06,2.72-3.22.93-1.34,1.65-2.79,2.38-4.23.57-1.13,1.16-2.24,1.93-3.25.23-.3.48-.58.73-.88-.09-.05-.16-.09-.23-.13-.7-.42-1.43-.8-2.08-1.29-1.04-.78-2.03-1.61-3.01-2.46-1.37-1.18-2.82-2.23-4.43-3.06-1.24-.64-2.54-1.14-3.94-1.29-.34-.04-.69-.03-1.03-.06-.4-.03-.55-.38-.32-.7.04-.06.11-.12.17-.18.62-.6,1.1-1.3,1.5-2.05.67-1.27,1.06-2.64,1.38-4.03.42-1.83.53-3.69.69-5.55.08-1.01.24-2.01.4-3.02.08-.49.27-.96.41-1.46-.49-.06-.97-.1-1.43-.18-1.45-.23-2.83-.69-4.21-1.14-2.09-.69-4.21-1.25-6.41-1.39-1.55-.1-3.07.04-4.53.63-.22.09-.44.17-.63-.04-.17-.19-.11-.39-.03-.6.73-1.78.78-3.63.55-5.5-.22-1.8-.66-3.54-1.23-5.25-.49-1.47-.98-2.95-1.23-4.49-.07-.45-.11-.9-.16-1.38ZM47.02,42.1c-.04-.16-.06-.26-.09-.35-.8-2.92-1.25-5.89-1.19-8.92.02-.96.09-1.93.16-2.89.18-2.18.7-4.29,1.21-6.4.08-.34.23-.42.58-.37,2.21.32,4.39.71,6.53,1.35.18.06.38.08.58.08,1.96-.03,3.89.17,5.79.62.1.03.21.03.38.05-.31-1.67-.4-3.32-.34-4.97-.17-.07-.3-.12-.44-.17-1.91-.67-3.88-1.09-5.89-1.24-2.09-.15-4.19-.2-6.28-.31-1-.05-1.99-.13-2.98-.22-.37-.03-.73-.13-1.1-.21-.03.09-.06.16-.07.22-.19.76-.33,1.54-.58,2.28-.62,1.76-1.29,3.5-1.93,5.25-.9,2.49-1.6,5.02-1.78,7.68-.15,2.21.12,4.34,1.09,6.36.03.06.06.12.09.18.11.35-.13.63-.49.57-.11-.02-.21-.07-.32-.12-1.71-.86-3.55-1.13-5.43-1.11-2.51.03-4.94.6-7.3,1.4-1.8.61-3.56,1.31-5.35,1.94-.92.33-1.87.6-2.8.89-.26.08-.54.1-.84.16.35,1.24.39,2.48.44,3.72.08,1.83.12,3.66.21,5.49.11,2.03.42,4.04.99,5.99.14.5.32.99.48,1.51,1.7-.07,3.34.03,5.02.33-.04-.22-.06-.36-.1-.5-.43-1.86-.64-3.74-.58-5.65,0-.22-.04-.46-.11-.67-.65-2.1-1.01-4.27-1.34-6.43-.05-.38.03-.51.4-.62.39-.1.79-.19,1.19-.28,2.53-.63,5.1-1.02,7.72-1.07,3.12-.07,6.17.34,9.18,1.16.14.04.28.06.46.1,1.07-2.15,2.71-3.73,4.85-4.84ZM149.29,46.98c.21-.05.35-.09.49-.13,2.25-.63,4.54-1.01,6.87-1.12,2.79-.13,5.57.07,8.3.67.93.2,1.85.42,2.78.63.49.12.54.2.49.68,0,.05-.01.1-.02.15-.28,1.87-.6,3.72-1.11,5.54-.18.66-.32,1.31-.31,2.01,0,1.72-.19,3.43-.61,5.11-.03.12-.02.25-.04.41,1.67-.3,3.31-.41,4.95-.34.08-.2.14-.33.18-.47.59-1.71.95-3.47,1.17-5.26.26-2.2.27-4.41.36-6.62.04-1.11.14-2.22.24-3.33.03-.34.13-.67.2-1.04-1.4-.17-2.68-.67-3.96-1.15-1.5-.56-3-1.14-4.52-1.66-2.45-.84-4.96-1.48-7.57-1.56-1.99-.06-3.92.22-5.73,1.11-.09.04-.18.09-.27.1-.32.05-.55-.19-.49-.5.02-.1.06-.19.1-.27,1.09-2.19,1.25-4.52,1.05-6.9-.13-1.54-.44-3.05-.91-4.52-.63-1.98-1.36-3.93-2.04-5.89-.41-1.17-.8-2.35-1.18-3.54-.09-.29-.12-.6-.18-.92-.37.07-.71.17-1.04.2-1.4.11-2.8.23-4.21.27-1.88.05-3.76.11-5.63.32-1.83.2-3.62.58-5.36,1.17-.15.05-.29.12-.37.15-.12,1.7-.23,3.34-.34,5,.12-.03.25-.04.37-.07,1.89-.42,3.8-.67,5.75-.58.14,0,.29-.03.43-.07.94-.24,1.86-.52,2.8-.72,1.2-.25,2.42-.44,3.63-.64.64-.11.7-.05.84.57.08.35.17.7.25,1.05.76,3.05,1.14,6.14,1.05,9.29-.07,2.55-.48,5.05-1.14,7.5-.04.15-.07.31-.12.5,2.16,1.07,3.74,2.71,4.85,4.85ZM60.94,166.07c-.1-.01-.14-.02-.17-.02-.08.02-.16.04-.24.06-1.81.42-3.64.64-5.5.61-.39,0-.74.05-1.11.16-2.06.62-4.17.97-6.29,1.29-.3.05-.45-.05-.54-.36-.06-.2-.1-.41-.15-.62-.63-2.48-1.09-4.99-1.2-7.55-.13-2.95.14-5.86.83-8.72.13-.55.27-1.1.42-1.69-2.18-1.07-3.75-2.73-4.83-4.81-.11,0-.14,0-.17,0-.12.03-.26.07-.38.1-2.94.79-5.93,1.2-8.98,1.13-2.2-.05-4.37-.3-6.52-.77-.81-.18-1.63-.38-2.44-.57-.44-.11-.51-.21-.46-.66.02-.19.06-.39.09-.58.29-1.99.67-3.97,1.26-5.9.07-.23.1-.48.1-.72-.04-1.71.13-3.4.48-5.07.06-.29.12-.59.2-.96-1.69.36-3.34.39-4.99.36-.06.14-.11.25-.15.35-.42,1.18-.72,2.38-.94,3.6-.44,2.43-.53,4.88-.6,7.33-.03,1.25-.1,2.49-.18,3.73-.04.56-.17,1.12-.25,1.65.76.2,1.52.35,2.24.6,1.61.56,3.2,1.17,4.79,1.76,2.42.89,4.87,1.64,7.44,1.94,2.53.29,5,.12,7.33-1.03.21-.11.4-.14.59.03.21.19.15.41.04.63-1.02,2.04-1.27,4.22-1.12,6.46.14,2.12.62,4.18,1.3,6.18.63,1.88,1.34,3.72,2.03,5.58.37,1,.74,2,.92,3.05.03.17.06.34.1.52.1,0,.17,0,.23-.01,1.01-.27,2.04-.33,3.07-.37,2.3-.09,4.61-.09,6.92-.3,2.11-.2,4.17-.6,6.18-1.3.1-.04.2-.1.3-.15-.05-1.66.05-3.29.35-4.93ZM147.52,173.19c.18-1.51.73-2.86,1.24-4.22.34-.92.7-1.84,1.04-2.76.99-2.66,1.8-5.37,2.04-8.22.16-1.88.01-3.73-.63-5.52-.14-.39-.31-.76-.48-1.13-.09-.21-.14-.41.04-.59.18-.18.38-.17.58-.05.13.07.27.13.4.19,2.26.99,4.62,1.14,7.03.85,2.17-.27,4.27-.83,6.33-1.56,1.29-.46,2.58-.95,3.87-1.43,1.38-.52,2.74-1.07,4.21-1.24.01-.06.03-.1.02-.13-.39-1.42-.37-2.89-.44-4.34-.09-1.79-.12-3.6-.23-5.39-.15-2.2-.56-4.35-1.28-6.44-.15-.44-.17-.43-.63-.44-.96-.02-1.93-.05-2.89-.11-.53-.03-1.06-.13-1.59-.2-.02.06-.04.09-.03.12.01.1.03.2.05.29.45,1.9.66,3.84.59,5.79,0,.13.02.26.06.38.51,1.68.88,3.39,1.16,5.12.08.52.17,1.03.23,1.55.05.39-.03.49-.42.59-.22.06-.45.11-.67.16-2.53.64-5.09,1.08-7.7,1.19-2.65.11-5.26-.15-7.86-.71-.75-.16-1.49-.36-2.27-.55-.56,1.03-1.2,2-2.02,2.82-.84.83-1.84,1.46-2.84,2.04.04.17.06.28.1.39.9,3.22,1.29,6.51,1.16,9.86-.11,2.81-.65,5.55-1.35,8.27-.1.38-.23.45-.65.39-2.22-.34-4.43-.72-6.58-1.39-.13-.04-.29-.06-.43-.06-1.98.07-3.92-.17-5.84-.61-.1-.02-.21-.03-.35-.04.31,1.68.41,3.32.35,4.98,1.02.4,2.05.67,3.09.9,2.67.59,5.38.69,8.1.76,1.83.05,3.67.02,5.52.48ZM187.13,77.54c-.51-.37-1.01-.7-1.46-1.06-.47-.38-.92-.79-1.36-1.2-.76-.7-1.5-1.42-2.25-2.12-1.65-1.54-3.33-3.05-5.24-4.28-.95-.61-1.92-1.18-2.99-1.64-1.12,1.24-2.36,2.32-3.77,3.28.16.11.28.19.4.27,1.64,1.02,3.14,2.19,4.44,3.62.11.12.25.22.39.29,1.98,1.03,3.79,2.33,5.59,3.65.38.27.41.42.16.82-.4.66-.8,1.31-1.22,1.96-2.91,4.58-6.68,8.26-11.43,10.91-.11.06-.21.14-.36.24.73,2.28.77,4.56,0,6.86.18.11.32.2.46.28,2.46,1.4,4.71,3.09,6.72,5.08,2.32,2.3,4.17,4.96,5.83,7.76.22.38.19.53-.16.78-1.81,1.33-3.63,2.64-5.63,3.67-.13.06-.25.15-.35.26-1.29,1.44-2.8,2.6-4.44,3.62-.13.08-.25.17-.42.29,1.44.96,2.66,2.06,3.78,3.28.25-.11.44-.2.63-.29,1.3-.63,2.51-1.41,3.67-2.27,2.07-1.54,3.89-3.36,5.78-5.1.83-.76,1.71-1.47,2.57-2.2.2-.17.43-.28.68-.44-.74-.91-1.23-1.93-1.7-2.95-.84-1.8-1.63-3.61-2.5-5.39-1-2.04-2.18-3.96-3.69-5.67-1.46-1.66-3.15-3-5.29-3.71-.04-.02-.09-.04-.14-.05-.17-.07-.24-.21-.25-.39,0-.19.08-.32.24-.39.08-.04.18-.07.27-.1.83-.28,1.6-.68,2.32-1.16,1.79-1.18,3.19-2.76,4.39-4.52,1.23-1.8,2.22-3.74,3.14-5.72.98-2.12,1.77-4.34,3.16-6.26ZM120.88,170.02c-.09.11-.14.18-.18.24-1.05,1.71-2.27,3.29-3.77,4.64-.09.08-.17.2-.23.31-1.03,2.01-2.34,3.82-3.66,5.64-.27.36-.4.39-.78.16-.45-.27-.89-.55-1.34-.82-2.38-1.47-4.59-3.15-6.55-5.15-1.98-2.01-3.64-4.25-5.02-6.71-.06-.11-.14-.21-.23-.35-2.29.73-4.58.77-6.83.01-.06.07-.09.09-.1.12-.09.14-.17.28-.25.42-1.35,2.36-2.97,4.51-4.87,6.46-2.34,2.4-5.05,4.31-7.93,6-.4.23-.51.21-.78-.15-1.31-1.78-2.6-3.58-3.62-5.55-.08-.16-.18-.32-.31-.44-1.44-1.31-2.62-2.83-3.65-4.48-.07-.11-.15-.21-.26-.37-.96,1.39-2.04,2.64-3.27,3.75.06.14.1.27.16.38.72,1.55,1.65,2.98,2.69,4.33,1.49,1.94,3.2,3.68,4.87,5.46.79.84,1.58,1.67,2.21,2.63.11.17.22.35.31.49.76-.43,1.46-.87,2.21-1.25.83-.42,1.69-.8,2.54-1.18,1.96-.87,3.91-1.76,5.76-2.86,1.64-.98,3.19-2.08,4.51-3.46,1.2-1.24,2.15-2.64,2.72-4.28,0-.02,0-.03.02-.05.05-.25.18-.44.46-.44.27,0,.38.2.46.43.66,1.96,1.87,3.55,3.36,4.95,1.42,1.33,3.04,2.38,4.73,3.33,1.8,1.01,3.7,1.83,5.58,2.67,1.37.62,2.76,1.22,3.97,2.14.02.01.06,0,.11,0,.64-1.13,1.52-2.08,2.41-3.02.96-1.03,1.93-2.05,2.88-3.09,1.62-1.75,3.08-3.61,4.23-5.71.26-.47.49-.96.74-1.46-1.25-1.12-2.32-2.36-3.29-3.77ZM23.4,92.21c-.21-.12-.37-.21-.53-.3-2.72-1.56-5.16-3.46-7.32-5.74-2.03-2.15-3.68-4.56-5.17-7.09-.23-.38-.2-.5.17-.78,1.78-1.31,3.58-2.59,5.55-3.62.16-.08.32-.18.44-.31,1.3-1.43,2.8-2.6,4.44-3.62.12-.08.23-.16.4-.28-1.4-.97-2.64-2.05-3.76-3.28-.23.1-.42.19-.61.28-1.33.65-2.57,1.44-3.75,2.32-1.96,1.46-3.71,3.17-5.49,4.84-1.07,1.01-2.13,2.04-3.41,2.8-.02.01-.03.06,0,0,.48.88.98,1.68,1.39,2.53.82,1.71,1.57,3.46,2.38,5.17.98,2.06,2.13,4.03,3.57,5.8,1.27,1.57,2.75,2.9,4.59,3.78.41.2.85.35,1.27.52.18.07.26.19.26.38,0,.2-.06.36-.26.43-.09.04-.19.06-.28.1-.47.2-.95.38-1.39.62-1.84.98-3.31,2.39-4.56,4.04-1.53,2-2.7,4.21-3.77,6.49-1.03,2.2-1.84,4.51-3.29,6.54,1.02.57,1.88,1.33,2.71,2.11,1.3,1.22,2.6,2.44,3.92,3.64,1.73,1.58,3.59,2.95,5.66,4.04.33.17.67.33,1.02.5,1.14-1.26,2.38-2.34,3.78-3.29-.16-.11-.26-.18-.35-.24-1.67-1.03-3.2-2.22-4.52-3.68-.1-.11-.22-.19-.36-.26-1.98-1.03-3.79-2.32-5.59-3.65-.4-.29-.42-.4-.15-.85.35-.57.7-1.14,1.05-1.71,2.95-4.7,6.78-8.47,11.65-11.17.09-.05.18-.13.29-.21-.72-2.28-.77-4.55,0-6.85ZM70.56,21.26s.06-.02.07-.04c.05-.08.11-.16.17-.24,1.03-1.67,2.23-3.2,3.68-4.52.11-.1.2-.22.27-.35,1.02-1.99,2.32-3.8,3.64-5.59.29-.4.42-.42.86-.16.51.31,1.03.63,1.54.95,4.75,2.96,8.58,6.8,11.32,11.71.05.1.12.19.21.33,2.28-.71,4.57-.78,6.86,0,.12-.21.22-.38.32-.54,1.42-2.49,3.14-4.76,5.17-6.78,2.27-2.25,4.87-4.07,7.62-5.69.38-.23.53-.2.79.15,1.31,1.78,2.6,3.58,3.62,5.55.09.17.2.34.34.47,1.15,1.06,2.15,2.25,3.02,3.54.27.4.53.82.84,1.29.96-1.42,2.06-2.67,3.28-3.76-.46-1.14-1.34-2.64-2.32-4.01-1.49-2.06-3.27-3.88-5-5.74-.73-.79-1.46-1.6-2.16-2.42-.3-.36-.54-.78-.82-1.18-1.29,1-2.78,1.61-4.24,2.28-1.46.67-2.93,1.33-4.36,2.05-1.79.89-3.49,1.95-5.03,3.23-1.83,1.53-3.31,3.32-4.08,5.61-.03.08-.05.16-.1.22-.18.24-.55.22-.7-.04-.06-.1-.09-.21-.12-.32-.32-.9-.75-1.74-1.3-2.53-1.16-1.66-2.64-2.99-4.3-4.13-1.99-1.37-4.14-2.44-6.34-3.44-1.95-.88-3.96-1.63-5.72-2.92-.04.04-.09.07-.11.1-.46.82-1.06,1.54-1.7,2.22-1.21,1.31-2.44,2.6-3.65,3.92-1.69,1.84-3.21,3.81-4.37,6.03-.17.33-.32.67-.48,1,.6.63,1.19,1.2,1.73,1.81.54.61,1.02,1.27,1.54,1.93ZM47.68,166.75c.14-.2.24-.32.32-.45,2.5-3.73,4.99-7.46,7.5-11.17.36-.53.5-1.07.4-1.67-.16-.91-.36-1.82-.55-2.73-.02-.11-.09-.2-.14-.3-2.56.43-5.05.3-7.46-.84-1.67,5.73-1.61,11.39-.07,17.17ZM55.33,40.91c.18-.81.37-1.57.51-2.34.08-.45.07-.91.09-1.37,0-.29-.09-.54-.26-.78-.44-.63-.86-1.28-1.29-1.92-2.12-3.17-4.24-6.34-6.37-9.51-.08-.13-.18-.25-.31-.44-1.53,5.79-1.6,11.46.07,17.17,2.43-1.16,4.92-1.22,7.55-.83ZM166.78,143.71c-.16-.12-.25-.21-.36-.27-3.82-2.56-7.64-5.12-11.46-7.69-.28-.19-.58-.31-.92-.28-.68.07-1.36.13-2.04.25-.51.08-1.01.25-1.55.39.46,2.6.3,5.09-.83,7.53,5.73,1.67,11.4,1.61,17.15.07ZM143.72,166.78c1.54-5.77,1.6-11.43-.05-17.15-1.22.51-2.41.87-3.68.98-1.28.11-2.54,0-3.85-.16-.34,1.19-.67,2.35-.64,3.58,0,.38.13.69.34,1,2.45,3.64,4.88,7.29,7.33,10.94.16.24.33.48.55.8ZM143.68,41.77c1.67-5.76,1.61-11.42.07-17.2-.15.22-.25.36-.34.5-2.5,3.73-4.99,7.46-7.5,11.18-.32.47-.42.94-.39,1.47,0,.13.01.26.03.39.1.95.32,1.87.63,2.82,2.56-.44,5.07-.3,7.5.84ZM149.66,47.73c1.14,2.42,1.22,4.93.84,7.45.06.05.08.08.11.09,1.06.35,2.14.6,3.27.63.47.02.91-.07,1.28-.4.15-.13.32-.22.48-.33,3.58-2.39,7.16-4.79,10.74-7.18.12-.09.24-.18.42-.32-3.37-.91-6.7-1.31-10.09-1.14-2.37.12-4.71.5-7.05,1.21ZM24.62,143.68c5.77,1.53,11.43,1.59,17.12-.06-.04-.13-.05-.19-.07-.25-.84-1.89-1.08-3.86-.88-5.91.04-.45.09-.9.13-1.37-1.23-.37-2.42-.69-3.69-.64-.27.01-.5.09-.73.24-3.79,2.54-7.6,5.08-11.39,7.62-.14.1-.28.21-.48.36ZM41.81,47.7c-2.87-.8-5.7-1.23-8.6-1.23-2.88,0-5.71.41-8.56,1.16.16.12.24.2.33.26.49.33.98.66,1.46.99,3.34,2.23,6.67,4.46,10,6.7.27.18.54.27.87.29,1.04.04,2.05-.2,3.04-.47.2-.06.39-.12.62-.19-.45-2.59-.3-5.07.84-7.51ZM105.82,162.98c-1.53,2.14-3.37,3.84-5.89,4.73,2.87,5.23,6.93,9.17,12.07,12.18-.03-.22-.04-.36-.07-.5-.28-1.41-.56-2.83-.83-4.24-.61-3.08-1.22-6.16-1.83-9.25-.05-.29-.16-.52-.35-.74-.86-.96-1.97-1.55-3.09-2.19ZM85.61,28.36c.77-1.05,1.6-2.01,2.58-2.84.98-.83,2.1-1.41,3.31-1.91-2.87-5.23-6.94-9.16-12.06-12.16.02.18.02.29.04.4.89,4.51,1.79,9.01,2.67,13.52.06.34.19.62.42.87.86.9,1.92,1.5,3.04,2.11ZM163.03,85.56c1.07.78,2.01,1.61,2.83,2.57.83.98,1.42,2.1,1.91,3.32,5.22-2.86,9.16-6.93,12.17-12.07-.43.08-.78.13-1.12.2-4.27.84-8.53,1.69-12.8,2.52-.33.07-.61.19-.86.42-.91.85-1.5,1.92-2.12,3.04ZM11.46,111.98c.66-.12,1.24-.24,1.81-.35,4.01-.8,8.03-1.6,12.04-2.38.44-.09.8-.26,1.1-.58.81-.83,1.4-1.81,1.92-2.83.01-.02,0-.06-.02-.13-2.07-1.48-3.75-3.31-4.64-5.84-2.39,1.31-4.52,2.86-6.45,4.7-2.26,2.16-4.13,4.63-5.76,7.4ZM105.85,28.35c1.08-.59,2.1-1.17,2.94-2.01.3-.3.47-.65.54-1.07.26-1.4.55-2.79.82-4.19.6-3.03,1.21-6.06,1.8-9.09.03-.15.04-.31.07-.48-1.59.63-5.71,3.87-7.75,6.09-1.68,1.82-3.11,3.82-4.33,6.04,2.52.93,4.42,2.55,5.9,4.72ZM163.01,105.83c.4.64.73,1.24,1.12,1.8.31.44.68.83,1.04,1.23.2.22.46.34.77.39.68.11,1.35.26,2.02.39,3.85.77,7.71,1.53,11.55,2.3.11.02.22.01.4.03-1.95-3.3-4.27-6.22-7.18-8.65-1.54-1.29-3.18-2.43-5-3.41-.93,2.52-2.55,4.4-4.74,5.92ZM79.4,179.89c2.09-1.24,3.99-2.59,5.73-4.15,2.56-2.29,4.64-4.96,6.35-8.02-2.5-.93-4.42-2.55-5.91-4.73-1.05.59-2.07,1.15-2.91,1.99-.29.29-.49.63-.57,1.05-.87,4.45-1.75,8.89-2.63,13.33-.03.14-.04.28-.06.53ZM28.4,85.53c-.62-1.11-1.21-2.18-2.12-3.03-.04-.04-.07-.07-.12-.09-.22-.11-.43-.26-.66-.3-4.54-.91-9.08-1.8-13.62-2.7-.11-.02-.22-.03-.4-.05,1.67,2.83,3.6,5.38,5.96,7.59,1.87,1.75,3.93,3.24,6.23,4.5.93-2.5,2.54-4.42,4.72-5.9ZM151.92,39.45s.06.04.07.04c.1-.03.19-.05.29-.08,2.07-.72,4.19-.81,6.35-.6,1.44.14,2.84.47,4.23.83.15.04.31.06.52.11-.58-3.46-2.08-6.32-4.71-8.56-1.96-1.67-5.54-3.23-6.99-3.06.02.12.04.22.07.33.22.96.47,1.91.65,2.88.47,2.68.47,5.34-.45,7.95-.02.05-.03.12-.04.16ZM39.79,28c-3.57.61-6.51,2.18-8.76,4.96-1.56,1.92-3.08,5.55-2.84,6.75,1.85-.5,3.71-.92,5.63-1.02,1.94-.1,3.83.13,5.75.81-.1-.31-.17-.52-.24-.74-.77-2.54-.73-5.1-.24-7.67.19-1.01.45-2.01.69-3.1ZM39.76,163.27c-.16-.67-.32-1.28-.46-1.9-.14-.64-.27-1.28-.37-1.93-.09-.63-.16-1.27-.19-1.9-.03-.64-.04-1.28.01-1.91.05-.65.14-1.3.27-1.94.12-.61.31-1.21.47-1.83-.08,0-.12,0-.15.01-.16.05-.31.1-.47.15-1.61.52-3.27.68-4.95.61-1.81-.08-3.57-.44-5.31-.91-.17-.04-.34-.07-.52-.12.58,5.37,5.05,10.79,11.65,11.67ZM183.08,103.97c1.96-2.68,2.92-5.61,2.79-8.86-.12-2.82-1.05-5.38-2.76-7.65-.74,1.12-1.43,2.21-2.17,3.27-.73,1.05-1.6,1.98-2.56,2.84-.96.85-2.04,1.53-3.25,2.12.15.08.22.12.29.16,1.69.79,3.09,1.95,4.33,3.33,1.18,1.31,2.15,2.76,3.02,4.29.09.15.19.3.31.51ZM104.03,8.3c-2.75-1.99-5.75-2.97-9.08-2.77-2.75.16-5.24,1.09-7.49,2.78.23.14.4.23.57.34,1.02.67,2.08,1.31,3.06,2.04,1.79,1.32,3.27,2.93,4.3,4.91.11.2.21.4.3.59.04-.01.07-.01.07-.02.07-.11.13-.22.19-.34.44-.88.98-1.7,1.6-2.46,1.4-1.7,3.13-3.02,4.99-4.17.46-.29.93-.55,1.48-.88ZM163.3,151.63c-.66.16-1.28.32-1.89.46-.64.14-1.28.28-1.93.38-.63.09-1.27.16-1.9.19-.64.03-1.28.04-1.91-.01-.65-.05-1.3-.14-1.94-.27-.61-.12-1.2-.31-1.85-.49.04.13.06.2.08.26.72,2.03.84,4.12.66,6.24-.14,1.52-.48,3-.87,4.48-.04.13-.05.27-.08.42,5.61-.63,10.86-5.33,11.64-11.65ZM87.44,183.01c5.07,3.95,12.16,3.53,16.48-.01-3.41-1.93-6.49-4.19-8.22-7.91-.07.11-.11.16-.14.22-.73,1.58-1.8,2.92-3.06,4.11-1.34,1.26-2.85,2.29-4.44,3.21-.2.12-.39.23-.63.37ZM16.29,95.67c-.13-.09-.18-.12-.24-.15-1.7-.8-3.12-1.97-4.38-3.36-1.19-1.32-2.16-2.79-3.05-4.33-.08-.14-.16-.27-.29-.47-1.93,2.63-2.89,5.52-2.79,8.71.09,2.88,1.03,5.48,2.79,7.84.33-.55.6-1.02.89-1.5,1.2-1.93,2.57-3.71,4.38-5.13.8-.63,1.66-1.16,2.67-1.62ZM9,72.37c.62-.56,1.22-1.1,1.82-1.62.15-.14.1-.29.06-.45-.36-1.42-.53-2.86-.49-4.33.05-1.89.43-3.71,1.19-5.43,1.3-2.97,3.39-5.26,6.18-6.91.11-.06.21-.14.33-.21-.03-.44-.05-.87-.08-1.29-.03-.43.02-.88-.11-1.3-9.36,2.6-13.69,12.98-8.9,21.55ZM40.16,26.9c.29-.83.57-1.64.86-2.46-4.18-.58-9.49.86-12.99,4.86-3.35,3.8-4.01,8.99-3.47,11.64.82-.29,1.63-.57,2.42-.86.93-7.23,6.23-12.28,13.18-13.18ZM150.39,166.96c5.25.38,9.67-1.13,13.13-5.08,3.16-3.6,3.9-8.58,3.35-11.47-.57.2-1.13.44-1.71.59-.54.14-.9.36-.84.98,0,.08-.03.16-.05.24-.77,4.11-2.82,7.39-6.29,9.74-1.92,1.3-4.04,2.06-6.33,2.39-.2.03-.38.03-.46.28-.24.74-.51,1.48-.8,2.33ZM40.13,164.42c-.06-.03-.09-.05-.12-.05-.18-.03-.36-.06-.54-.09-5.16-.89-8.91-3.66-11.2-8.39-.65-1.33-1.03-2.75-1.23-4.22-.04-.32-.16-.49-.47-.59-.52-.15-1.02-.35-1.53-.53-.18-.06-.36-.12-.61-.2-.39,4.86.91,9.05,4.34,12.46,3.82,3.8,9.05,4.55,12.21,4.02-.29-.82-.57-1.64-.85-2.43ZM72.42,182.4c-.56-.62-1.09-1.22-1.62-1.82-.16-.17-.32-.11-.5-.06-1.55.39-3.12.57-4.72.47-1.76-.1-3.47-.48-5.08-1.2-2.93-1.31-5.19-3.38-6.83-6.13-.06-.11-.14-.22-.22-.34-.87.04-1.73.09-2.6.13,2.36,9,12.57,13.87,21.56,8.95ZM182.43,118.98c-.56.51-1.09,1-1.64,1.46-.26.21-.29.41-.21.72.49,1.97.63,3.96.32,5.99-.69,4.42-2.98,7.79-6.67,10.25-.27.18-.66.29-.79.54-.13.27-.03.66-.02,1,.03.53.06,1.06.09,1.61,9.72-2.75,13.61-13.4,8.92-21.56ZM140.62,17.88c-.52-1.74-1.27-3.33-2.31-4.77-1.65-2.3-3.78-4.03-6.42-5.09-2.74-1.1-5.58-1.33-8.49-.73-1.54.32-3,.85-4.41,1.65.62.69,1.2,1.33,1.76,1.96,6.82-1.86,13.72.89,17.22,7.12.84-.04,1.71-.09,2.64-.14ZM8.99,118.94c-2.33,4.08-2.75,9.51-.4,14.04,1.26,2.43,3.06,4.35,5.38,5.8,1.22.76,2.51,1.35,3.94,1.76.05-.94.1-1.8.14-2.66-.11-.07-.19-.13-.27-.18-1-.58-1.92-1.25-2.75-2.05-3.04-2.87-4.57-6.41-4.67-10.57-.03-1.36.17-2.71.5-4.03.05-.2.1-.37-.09-.53-.59-.51-1.17-1.04-1.78-1.59ZM118.95,182.44c4.77,2.38,9.49,2.7,14.25.25,2.44-1.25,4.31-3.12,5.72-5.46.71-1.17,1.27-2.41,1.66-3.76-.81-.05-1.54-.07-2.27-.14-.29-.03-.45.04-.59.3-.69,1.24-1.57,2.33-2.6,3.31-2.74,2.61-6.01,3.96-9.79,4.07-1.43.04-2.84-.13-4.23-.49-.18-.04-.35-.12-.5.05-.53.6-1.07,1.2-1.66,1.86ZM72.49,8.91c-4.53-2.29-9.05-2.67-13.67-.56-4.4,2.02-7.14,6.25-7.9,9.52.88.04,1.76.09,2.54.13,4.14-6.46,9.88-8.79,17.28-7.14.55-.61,1.12-1.25,1.76-1.95ZM7.81,104.95c-.11-.15-.2-.28-.3-.42-2.21-3.06-3.25-6.45-2.9-10.25.25-2.67,1.16-5.1,2.74-7.25.39-.54.43-.93.1-1.47-.3-.5-.52-1.05-.78-1.58-7.97,6.32-7.41,17.62,0,23.31.38-.79.75-1.56,1.13-2.34ZM183.62,86.41c2.14,2.74,3.29,5.83,3.28,9.29,0,3.47-1.16,6.57-3.29,9.28.4.82.77,1.6,1.15,2.37,3.53-2.74,6.12-7.4,5.75-12.67-.35-5.02-3.4-8.99-5.77-10.62-.37.77-.73,1.53-1.12,2.34ZM166.92,40.97c.57-3.44-.42-9.04-4.68-12.84-2.24-2-4.86-3.18-7.82-3.62-1.3-.19-2.62-.22-3.93-.07,0,.11,0,.14,0,.17.23.66.48,1.33.69,2,.08.28.23.38.51.43.55.08,1.1.16,1.63.31,5.71,1.58,9.3,5.24,10.8,10.96.15.58.24,1.19.36,1.81.8.29,1.62.57,2.44.85ZM173.53,50.79c-.05.78-.07,1.5-.14,2.21-.04.36.09.55.39.73,1.81,1.08,3.36,2.45,4.57,4.18,2.24,3.2,3.09,6.74,2.54,10.61-.1.71-.25,1.41-.39,2.16.62.55,1.26,1.13,1.9,1.71,1.96-3.25,2.87-8.2.96-12.84-1.84-4.48-5.25-7.26-9.85-8.76ZM84.03,184.71c6.34,7.94,17.55,7.43,23.31,0-.14-.08-.29-.15-.43-.22-.49-.23-.99-.44-1.46-.71-.34-.19-.56-.15-.87.08-2.46,1.83-5.22,2.85-8.29,2.98-2.39.11-4.69-.37-6.86-1.41-.96-.46-1.88-1-2.73-1.65-.14-.11-.27-.25-.48-.14-.72.36-1.44.7-2.2,1.07ZM107.43,6.62c-.15-.18-.24-.31-.35-.43-.75-.84-1.57-1.62-2.48-2.31-2.64-2-5.64-3.01-8.95-3.04-1.21-.02-2.41.18-3.59.5-3.18.84-5.76,2.61-7.87,5.09-.05.05-.07.13-.11.22.8.38,1.58.76,2.3,1.1,6.28-4.37,12.48-4.36,18.7,0,.75-.36,1.51-.73,2.35-1.12ZM43.39,136.88c-.24,7.12,5.91,11.53,11.08,11.05-.02-.09-.04-.19-.07-.28-.51-1.58-.88-3.18-1.06-4.83-.18-1.57-.18-3.13.23-4.68.03-.13.05-.27.08-.44-3.54.94-6.89.18-10.26-.82ZM136.93,148c6.74.27,11.5-5.5,11.06-11.08-.13.03-.25.05-.38.09-1.58.5-3.19.86-4.84,1.04-1.57.17-3.14.15-4.68-.26-.1-.03-.21-.03-.35-.05.96,3.53.18,6.88-.82,10.26ZM43.4,54.43c.16-.04.29-.06.41-.1,1.43-.47,2.9-.8,4.39-1,1.73-.23,3.46-.25,5.16.22.09.02.18.03.29.04,0-.08.01-.13,0-.18-.53-1.86-.48-3.75-.2-5.64.2-1.34.51-2.67.92-3.96.05-.14.07-.29.11-.45-5.83-.33-11.3,4.46-11.08,11.06ZM29.52,87.76c-2.24,2.29-3.53,4.97-3.43,8.12.09,2.95,1.2,5.55,3.46,7.62.09-.15.16-.24.21-.35.61-1.23,1.37-2.38,2.18-3.49,1.14-1.56,2.45-2.94,4.16-3.89.04-.02.06-.06.12-.13-3.15-1.82-4.98-4.75-6.7-7.88ZM137.8,53.63c3.51-.95,6.86-.17,10.25.83.13-3.15-.96-5.83-3.08-7.99-2.15-2.18-4.88-3.2-8.02-3.15.04.19.06.32.1.44.41,1.25.71,2.52.91,3.81.21,1.36.35,2.73.16,4.1-.09.63-.21,1.26-.32,1.95ZM95.7,155.12c-.09.13-.15.23-.21.33-.46.8-1.03,1.52-1.67,2.17-1.57,1.58-3.4,2.81-5.36,3.87-.2.11-.39.22-.6.33,4.53,4.91,11.87,4.3,15.65,0-.14-.08-.29-.16-.43-.23-2.91-1.61-5.63-3.43-7.38-6.46ZM150.64,118.42c.12.17.18.27.25.35.51.65.92,1.36,1.24,2.11.93,2.12,1.36,4.37,1.61,6.65.03.22.05.44.08.67,5.91-2.04,8.67-9.03,5.97-14.46-.19.15-.36.29-.53.44-1.03.9-2.14,1.68-3.32,2.35-1.43.82-2.91,1.5-4.55,1.77-.22.04-.44.07-.75.12ZM118.43,150.64c-.18,1.78-.81,3.38-1.65,4.9-.83,1.53-1.87,2.91-3.02,4.22,5.51,2.66,12.41-.02,14.49-5.97-.08-.02-.16-.04-.23-.04-1.33-.07-2.63-.32-3.92-.61-1.98-.45-3.87-1.12-5.47-2.42-.04-.03-.08-.04-.19-.08ZM150.72,72.89s.04.05.07.06c.11.03.22.05.33.06,1.05.13,2.04.45,3.01.88,1.91.85,3.65,1.97,5.23,3.35.14.12.29.24.45.36,2.53-5.1.35-12.15-5.97-14.49-.03.17-.06.32-.07.48-.07,1.26-.32,2.5-.6,3.73-.44,1.98-1.13,3.86-2.42,5.47-.02.02-.01.06-.02.09ZM161.87,103.5c1.63-1.17,3.71-4.88,3.47-8.2-.2-2.89-1.24-5.44-3.47-7.47-.1.18-.16.29-.22.41-.71,1.39-1.56,2.69-2.52,3.91-1.05,1.36-2.25,2.56-3.77,3.4-.06.03-.09.08-.17.14,3.16,1.82,4.98,4.76,6.67,7.8ZM87.91,29.53c.13.07.23.13.33.18,1.59.82,3.08,1.81,4.46,2.94,1.16.96,2.17,2.05,2.9,3.37.03.05.07.09.14.16.09-.13.16-.24.23-.35.56-.94,1.24-1.77,2.04-2.51,1.52-1.41,3.23-2.56,5.06-3.53.17-.09.33-.19.5-.29-4.48-4.85-11.77-4.34-15.65.02ZM72.98,40.69c.49-3.6,2.41-6.44,4.71-9.14-3-1.35-5.97-1.33-8.9-.08-3.01,1.28-5.31,4.49-5.58,6.08.06,0,.12.02.19.03,1.23.19,2.47.33,3.68.57,2.09.43,4.07,1.13,5.76,2.48.02.02.06.02.14.05ZM40.77,118.39c-1.8-.19-3.39-.82-4.91-1.65-1.53-.84-2.92-1.87-4.27-3.06-1.38,3.22-1.34,6.35.17,9.41,1.3,2.64,4.36,4.89,5.85,5.08.01-.08.03-.16.04-.24.1-1.57.4-3.11.8-4.63.44-1.7,1.09-3.3,2.2-4.68.04-.05.06-.11.13-.23ZM113.81,31.6c2.27,2.67,4.17,5.52,4.67,9.1.6-.38,1.13-.77,1.71-1.07,2.25-1.19,4.71-1.65,7.2-1.96.29-.04.58-.05.88-.08-2.2-6.15-9.26-8.59-14.46-5.98ZM63.17,153.79c2.24,6.21,9.3,8.53,14.46,5.96-2.26-2.68-4.18-5.53-4.67-9.14-2.9,2.26-6.31,2.77-9.78,3.19ZM40.79,72.92c-2.28-2.93-2.78-6.34-3.2-9.78-5.92,1.99-8.65,9.09-5.95,14.44.31-.25.61-.5.91-.75,1.47-1.24,3.11-2.23,4.87-3.01,1.05-.47,2.15-.76,3.37-.9ZM130.79,19.46c1.95-.69,3.94-1.08,6.04-1.34-1.84-2.97-4.3-5.04-7.54-6.1-2.54-.84-5.11-.92-7.78-.23,1.32,1.65,2.43,3.34,3.32,5.21.19-.14.31-.24.44-.34,1.16-.91,2.37-1.74,3.69-2.42.52-.27.69-.21.84.37.23.87.46,1.74.64,2.62.15.71.23,1.45.36,2.22ZM11.85,69.86c1.64-1.29,3.32-2.42,5.2-3.3-.19-.24-.34-.43-.48-.62-.83-1.06-1.57-2.18-2.21-3.37-.07-.13-.14-.26-.19-.4-.07-.21,0-.39.2-.49.1-.05.21-.09.32-.11,1.05-.24,2.1-.5,3.16-.72.52-.11,1.06-.16,1.6-.24-.26-1-.55-1.97-.77-2.96-.22-1-.36-2.01-.55-3.03-5.28,2.97-7.88,9.4-6.29,15.23ZM173.29,136.77c2.88-1.79,4.94-4.21,6.03-7.4.85-2.51.95-6.62.21-7.85-1.58,1.27-3.27,2.38-5.14,3.27.12.17.22.29.32.43.68.98,1.36,1.97,2.03,2.96.15.21.26.45.38.69.3.59.24.73-.37.92-.03,0-.06.02-.1.03-1.38.41-2.79.71-4.22.86-.15.02-.31.06-.44.08.27,1.01.55,1.97.77,2.95.21.99.36,1.99.55,3.08ZM60.65,171.93c-1.01.27-1.99.56-2.97.78-.99.22-2,.36-3.02.54,3.26,5.62,9.81,7.81,15.25,6.29-1.29-1.61-2.41-3.31-3.3-5.19-.21.16-.37.28-.52.4-1.12.89-2.31,1.67-3.57,2.34-.55.29-.75.23-.89-.35-.28-1.14-.54-2.29-.78-3.44-.1-.44-.13-.9-.2-1.35ZM66.67,16.94c.85-1.83,1.98-3.51,3.27-5.15-2.98-.76-5.85-.59-8.62.53-2.84,1.16-5.04,3.09-6.66,5.76,1.05.18,2.06.32,3.04.53.98.22,1.95.51,2.98.78.05-.41.09-.81.17-1.21.26-1.21.52-2.43.82-3.63.13-.53.34-.59.83-.33.33.18.67.35.98.55,1.04.69,2.08,1.41,3.19,2.16ZM121.48,179.55c6.64,1.74,12.86-1.78,15.22-6.34-2.02-.22-4-.65-5.94-1.31-.11.72-.18,1.39-.32,2.04-.21.96-.44,1.91-.69,2.86-.12.46-.33.54-.76.33-.09-.04-.18-.09-.26-.13-1.24-.67-2.41-1.46-3.52-2.34-.12-.1-.26-.2-.42-.33-.87,1.88-2,3.56-3.3,5.21ZM174.39,66.6c1.88.88,3.56,2.01,5.16,3.27.81-2.41.72-6.33-.91-9.52-1.22-2.38-4.12-5.43-5.39-5.63-.21,2.01-.65,3.98-1.3,5.91.91.15,1.77.27,2.62.44.78.16,1.56.38,2.33.59.42.12.49.31.31.71-.06.12-.12.23-.18.35-.67,1.23-1.44,2.38-2.31,3.47-.1.12-.19.26-.32.43ZM11.81,121.42c-.83,3.61-.48,6.96,1.28,10.13,1.19,2.13,3.88,4.83,5.08,5.09.22-2.02.64-3.99,1.3-5.92-.81-.13-1.58-.22-2.32-.38-.88-.18-1.75-.41-2.62-.65-.41-.11-.49-.33-.32-.71.03-.07.08-.14.12-.21.58-1.1,1.26-2.14,2.02-3.13.21-.28.43-.56.69-.9-1.88-.87-3.55-2-5.22-3.32ZM124.01,28.45c.63.39,1.22.73,1.76,1.11.56.4,1.07.85,1.65,1.32,1.62-2.5,2.36-5.25,2.6-8.18.17-2.11-.3-5.99-.8-6.84-1.74,4.21-3.48,8.4-5.21,12.6ZM62.11,175.46s.07,0,.1.01c1.73-4.19,3.47-8.39,5.22-12.62-1.26-.63-2.37-1.44-3.41-2.43-1.5,2.3-2.27,4.81-2.55,7.47-.27,2.56-.03,5.08.63,7.56ZM175.62,129.21c-4.29-1.77-8.48-3.51-12.71-5.26-.64,1.26-1.43,2.38-2.39,3.37,2.82,2.51,10.74,3.52,15.11,1.9ZM30.89,127.3c-.3-.35-.61-.68-.88-1.04-.29-.37-.57-.76-.82-1.16-.25-.38-.46-.78-.68-1.15-2.27.81-12.33,5.04-12.59,5.29,5.39,1.52,11.45.63,14.98-1.93ZM30.94,63.94c-4.76-2.86-9.78-3.16-15.03-1.83,4.19,1.8,8.39,3.54,12.58,5.27.38-.62.71-1.2,1.1-1.75.4-.56.85-1.07,1.35-1.69ZM175.56,62.19c-.07-.07-.09-.1-.11-.11-.08-.03-.16-.05-.24-.07-2.82-.68-5.65-.87-8.52-.37-2.03.35-3.96,1-5.73,2.07-.15.09-.29.19-.46.31,1.01,1.02,1.79,2.14,2.42,3.39,4.23-1.75,8.42-3.48,12.64-5.22ZM72.33,27.47c-.49-2.37-1.5-4.43-2.89-6.32-1.71-2.35-3.89-4.19-6.41-5.65,1.69,4.24,3.42,8.45,5.18,12.67,1.36-.44,2.69-.65,4.11-.7ZM27.47,119.06c-2.76.6-5.14,1.88-7.27,3.65-1.89,1.59-3.43,3.48-4.69,5.58.03.03.05.07.07.1,4.21-1.74,8.41-3.47,12.6-5.21-.17-.72-.34-1.37-.45-2.03-.12-.67-.17-1.36-.26-2.1ZM123.98,162.91c1.74,4.21,3.47,8.4,5.24,12.67.7-2.2,1.1-5.68.54-8.89-.39-2.21-1.11-4.3-2.36-6.2-.56.46-1.07.91-1.63,1.31-.56.39-1.16.73-1.78,1.12ZM62.26,15.86s-.07.01-.11.02c-.04.12-.08.25-.11.38-.34,1.47-.57,2.95-.61,4.46-.09,3.01.42,5.9,1.75,8.62.25.52.56,1.02.87,1.57,1.05-1.01,2.16-1.81,3.43-2.44-1.75-4.23-3.48-8.42-5.21-12.61ZM123.22,163.16c-1.35.46-2.71.63-4.14.73,1.34,5.42,4.71,9.16,9.31,11.94-1.67-4.23-3.41-8.42-5.17-12.67ZM128.48,15.54s-.07-.04-.11-.07c-4.56,2.82-7.93,6.56-9.27,11.97.75.09,1.43.14,2.1.25.69.12,1.36.3,2.06.46,1.75-4.22,3.48-8.41,5.21-12.61ZM72.25,163.87c-1.37-.07-2.72-.27-4.07-.72-1.75,4.24-3.49,8.44-5.26,12.71,4.1-1.8,9.15-8.32,9.33-12ZM175.88,63c-4.23,1.68-8.44,3.41-12.62,5.16.16.74.34,1.4.46,2.08.11.67.16,1.34.25,2.07,5.4-1.33,9.13-4.7,11.91-9.3ZM28.22,68.19c-.73-.43-12.33-5.19-12.67-5.2.02.05.03.1.05.14.08.14.17.28.26.42,1.02,1.59,2.19,3.06,3.57,4.35,2.04,1.9,4.37,3.32,7.06,4.11.32.1.65.16,1.02.25.06-1.41.26-2.75.7-4.07ZM175.93,128.47c-.1-.22-.14-.32-.19-.41-1.23-1.99-2.7-3.78-4.5-5.29-2.01-1.69-4.25-2.93-6.81-3.56-.17-.04-.34-.05-.54-.08-.02,1.43-.28,2.75-.69,4.08,4.23,1.75,8.42,3.48,12.72,5.26ZM157.23,55.06c.71,1.3,1.14,2.65,1.53,4.03.1-.06.14-.09.17-.12,2.01-1.81,4.24-3.28,6.72-4.37.22-.1.31-.25.38-.46.53-1.71.9-3.45,1.18-5.21.03-.16.04-.33.07-.6-3.41,2.28-6.72,4.49-10.05,6.72ZM112.81,179.7c.11-.1.16-.13.19-.18,1.13-1.53,2.18-3.11,3.06-4.8.11-.21.11-.39.02-.6-.95-2.46-1.47-5.02-1.63-7.64,0-.11-.03-.21-.06-.36-1.27.74-2.52,1.36-3.93,1.76.78,3.92,1.54,7.83,2.34,11.82ZM166.15,114.38c.11.03.13.05.17.05,2.71.14,5.35.67,7.89,1.66.22.08.39.04.59-.06,1.65-.85,3.19-1.88,4.68-2.97.08-.06.14-.15.25-.26-3.97-.78-7.88-1.56-11.79-2.33-.43,1.4-1.03,2.67-1.78,3.92ZM25.29,114.38c-.78-1.29-1.37-2.57-1.8-3.95-3.95.78-7.85,1.55-11.82,2.34.11.11.14.16.19.2,1.52,1.12,3.08,2.16,4.75,3.04.24.12.45.12.7.03,2.07-.8,4.22-1.3,6.43-1.51.48-.04.97-.08,1.56-.13ZM78.62,11.63c-.1.09-.15.12-.19.17-1.12,1.52-2.16,3.08-3.04,4.75-.13.26-.13.47-.03.74.8,2.09,1.3,4.25,1.51,6.47.04.46.09.93.14,1.47,1.28-.78,2.56-1.36,3.94-1.8-.78-3.95-1.55-7.85-2.33-11.81ZM167.93,80.92c1.98-.39,3.93-.79,5.88-1.17,1.96-.39,3.92-.76,5.88-1.23-.04-.09-.1-.12-.15-.16-1.5-1.09-3.03-2.12-4.67-2.98-.29-.15-.52-.15-.82-.04-1.92.74-3.9,1.21-5.94,1.44-.63.07-1.26.12-1.96.19.74,1.28,1.36,2.54,1.78,3.94ZM78.58,179.72c.79-4.02,1.57-7.93,2.35-11.85-1.42-.41-2.67-1.04-3.94-1.76-.04.42-.07.77-.11,1.12-.19,2.33-.69,4.59-1.53,6.77-.12.33-.11.57.05.87.86,1.62,1.87,3.15,2.96,4.62.04.05.09.1.21.23ZM157.23,136.31c3.33,2.23,6.63,4.44,10,6.69,0-.19.01-.28,0-.37-.28-1.86-.67-3.7-1.23-5.5-.06-.19-.17-.3-.34-.38-2.45-1.08-4.65-2.53-6.65-4.3-.07-.06-.15-.1-.26-.17-.37,1.41-.84,2.73-1.51,4.03ZM11.67,78.54c4.02.79,7.94,1.59,11.85,2.34.4-1.42,1.03-2.67,1.73-3.88-.08-.05-.1-.07-.13-.08-.09-.02-.19-.03-.29-.04-2.59-.14-5.09-.67-7.5-1.6-.27-.11-.48-.09-.74.05-1.64.86-3.18,1.88-4.67,2.98-.06.04-.11.1-.25.22ZM48.38,167.18c.13.03.16.04.2.03,1.88-.29,3.73-.67,5.55-1.22.28-.09.43-.24.54-.49,1.03-2.32,2.41-4.42,4.08-6.34.12-.13.22-.27.37-.45-1.43-.39-2.77-.84-4.05-1.53-2.23,3.33-4.45,6.64-6.7,10ZM143.05,24.16c-.11-.02-.16-.04-.2-.03-1.9.28-3.77.68-5.61,1.24-.25.07-.37.22-.47.44-1.05,2.39-2.47,4.54-4.2,6.49-.08.1-.15.2-.27.34,1.43.37,2.76.85,4.04,1.52,2.24-3.34,4.46-6.65,6.7-10ZM114.38,25.2c.05-.06.08-.08.09-.11.02-.19.04-.39.05-.58.16-2.46.67-4.85,1.56-7.16.12-.32.11-.57-.06-.87-.85-1.61-1.86-3.12-2.93-4.58-.05-.07-.13-.12-.24-.23-.79,3.98-1.57,7.9-2.34,11.81,1.41.41,2.67,1.03,3.88,1.74ZM32.69,59.09c.36-1.45.85-2.78,1.51-4.06-3.33-2.24-6.65-4.45-10.01-6.71,0,.17,0,.25,0,.33.29,1.83.67,3.64,1.2,5.41.08.27.21.44.48.56,2.37,1.05,4.51,2.45,6.45,4.17.1.09.2.16.37.29ZM32.66,132.25c-.15.12-.26.19-.35.27-1.95,1.73-4.11,3.13-6.49,4.19-.28.12-.38.31-.46.57-.52,1.69-.88,3.42-1.16,5.17-.02.15-.02.3-.03.54,3.4-2.27,6.71-4.49,10.01-6.7-.69-1.29-1.14-2.62-1.52-4.03ZM136.32,157.2c-1.29.69-2.62,1.14-4.04,1.52.12.15.19.25.27.35,1.73,1.95,3.14,4.1,4.19,6.49.11.25.27.37.53.45,1.6.49,3.22.85,4.87,1.12.26.04.53.07.91.12-2.29-3.42-4.5-6.73-6.72-10.05ZM48.5,24.09s-.04.05-.06.08c2.22,3.32,4.44,6.64,6.68,9.97,1.29-.7,2.63-1.13,4.04-1.54-.1-.12-.14-.19-.2-.24-1.77-1.98-3.21-4.17-4.28-6.61-.1-.23-.25-.36-.49-.42-1.3-.31-2.6-.65-3.91-.95-.58-.13-1.18-.2-1.77-.3ZM73.14,163.91s-.04.08-.05.12c-.36,1.73-1,3.35-1.89,4.87-.13.23-.1.41.02.63.82,1.4,1.78,2.71,2.9,3.89.13.13.26.27.45.46,1.27-3.47,1.86-6.94,1.53-10.52-1.01.19-1.96.36-2.95.55ZM118.29,27.43s.03-.03.04-.06c.36-1.75,1-3.38,1.9-4.92.15-.26.11-.44-.03-.67-.81-1.37-1.75-2.65-2.83-3.82-.14-.15-.3-.29-.5-.49-1.27,3.46-1.85,6.92-1.52,10.52,1.01-.19,1.95-.37,2.95-.56ZM55.39,25.45c1.54,3.3,3.58,6.15,6.33,8.46.59-.83,1.15-1.63,1.72-2.44,0-.01,0-.05-.03-.07-.99-1.52-1.7-3.17-2.15-4.92-.06-.23-.19-.31-.4-.36-1.3-.35-2.62-.58-3.96-.66-.47-.03-.94,0-1.51,0ZM173.94,116.82c-3.47-1.27-6.94-1.86-10.54-1.52.19,1.01.37,1.97.55,2.91.88.28,1.8.52,2.69.87.89.35,1.75.8,2.68,1.24,1.64-.91,3.18-2.05,4.63-3.5ZM61.75,157.42c-2.07,1.35-6.22,6.97-6.29,8.5.08,0,.16.01.24.01,1.74-.06,3.45-.28,5.13-.72.27-.07.35-.23.42-.47.44-1.63,1.09-3.18,2.01-4.61.06-.09.11-.2.17-.3-.3-.39-.61-.75-.88-1.13-.28-.4-.53-.82-.81-1.27ZM115.31,163.37c-.32,3.61.26,7.07,1.52,10.49.15-.12.25-.2.34-.29,1.13-1.19,2.11-2.5,2.96-3.91.19-.31.21-.55.02-.89-.84-1.43-1.44-2.97-1.79-4.6-.02-.11-.07-.21-.09-.27-1-.18-1.94-.36-2.95-.55ZM165.94,136.03c.01-.19.03-.27.03-.35-.02-1.75-.28-3.46-.71-5.14-.06-.24-.19-.34-.43-.4-1.67-.45-3.25-1.11-4.71-2.05-.08-.05-.17-.09-.21-.11-.82.58-1.61,1.13-2.45,1.71,2.3,2.75,5.15,4.79,8.48,6.34ZM33.95,61.67c-1.43-2.1-6.81-6.09-8.48-6.27,0,.07-.02.13-.02.2.04,1.74.28,3.46.7,5.15.07.27.21.41.48.47,1.05.26,2.07.63,3.03,1.12.64.32,1.26.69,1.87,1.02.81-.57,1.61-1.13,2.41-1.69ZM173.92,74.55c-.2-.21-.33-.36-.47-.49-1.17-1.09-2.44-2.03-3.81-2.84-.28-.16-.48-.16-.76,0-1.47.85-3.03,1.48-4.69,1.83-.1.02-.18.06-.22.08-.19,1-.37,1.96-.56,2.95,3.59.33,7.04-.26,10.51-1.52ZM71.08,22.16c.98,1.65,1.7,3.43,2.07,5.27,1.02.19,1.96.36,2.96.55.34-3.59-.25-7.06-1.5-10.47-.94.68-2.92,3.31-3.53,4.65ZM22.11,120.29c.91-.42,1.77-.88,2.66-1.23.89-.35,1.82-.6,2.7-.88.18-.95.35-1.89.54-2.9-3.6-.31-7.07.24-10.52,1.52,1.42,1.44,2.96,2.57,4.62,3.5ZM17.51,74.51c3.45,1.29,6.92,1.84,10.52,1.53-.19-1.02-.37-1.97-.56-2.97-1.86-.37-3.62-1.1-5.29-2.08-1.71.95-3.25,2.08-4.68,3.53ZM31.51,127.93c-.07.04-.14.07-.21.12-1.44.93-3,1.6-4.65,2.03-.31.08-.44.24-.52.54-.35,1.35-.55,2.72-.65,4.11-.03.4-.05.79,0,1.26,3.32-1.54,6.17-3.58,8.48-6.33-.83-.59-1.62-1.15-2.45-1.73ZM127.98,159.88c.04.07.08.16.13.24.92,1.41,1.57,2.95,2,4.57.09.35.26.5.6.59,1.42.35,2.86.56,4.32.66.3.02.62,0,.93,0-.32-1.9-4.79-7.85-6.29-8.43-.55.78-1.1,1.55-1.69,2.38ZM129.73,33.93c2.76-2.34,4.82-5.18,6.34-8.49-.33,0-.56,0-.81,0-1.54.03-3.06.29-4.56.65-.34.08-.48.25-.56.57-.43,1.62-1.09,3.15-2,4.57-.06.09-.11.19-.13.24.58.83,1.13,1.62,1.72,2.46ZM166.01,55.31c-3.37,1.56-6.21,3.6-8.54,6.36.83.59,1.62,1.15,2.43,1.73,0,0,.04,0,.07-.02,1.52-.99,3.16-1.71,4.92-2.16.22-.06.33-.17.37-.39.19-1.01.42-2.01.57-3.03.11-.79.12-1.58.18-2.49ZM136.67,42.54c3.45-.13,6.46.95,8.84,3.33,2.38,2.4,3.54,5.39,3.34,8.86.29.09.56.17.87.27.7-4.15-.42-7.64-3.31-10.58-2.9-2.42-6.18-3.42-9.99-2.7.09.3.17.54.26.82ZM61.44,153.89c.65,3.74,3.17,6.92,6.66,8.34,3.67,1.49,7.28,1.05,10.67-1.14-.2-.24-.37-.45-.56-.67-3.12,1.48-6.33,1.58-9.46.3-3.13-1.29-5.29-3.66-6.48-6.89-.28.02-.54.04-.83.06ZM42.57,54.71c0-.21,0-.38,0-.56-.04-1.29.19-2.54.61-3.76.6-1.72,1.44-3.33,2.78-4.57,2.29-2.12,4.99-3.33,8.17-3.29.68,0,.68,0,.85-.64.01-.06.02-.12.03-.19-.14-.04-.25-.07-.37-.09-2.46-.35-4.83-.08-7.06,1.09-1.07.57-2.13,1.2-2.94,2.11-2.38,2.66-3.46,5.77-3.02,9.35.03.27.08.53.13.81.19-.05.32-.08.44-.12.11-.04.21-.08.37-.14ZM153.98,129.98c3.95-.89,6.72-3.18,8.39-6.83,1.26-3.69.92-7.19-1.24-10.53-.25.22-.45.39-.66.58,1.5,3.15,1.57,6.35.28,9.48-1.3,3.12-3.69,5.27-6.89,6.46.02.23.04.43.06.62,0,.06.03.12.06.22ZM37.46,61.36c-3.99.91-6.9,3.16-8.38,6.92-1.42,3.6-.93,7.12,1.22,10.44.24-.2.44-.37.67-.56-1.49-3.13-1.58-6.34-.29-9.46,1.29-3.13,3.66-5.29,6.87-6.46,0-.17,0-.29,0-.42-.01-.13-.04-.26-.08-.45ZM41.76,136.36c-.04.08-.06.11-.06.14-.38,2.43-.2,4.79.91,7.04.61,1.22,1.31,2.4,2.34,3.31,2.78,2.44,6.01,3.42,9.69,2.87.12-.02.23-.07.38-.12-.1-.29-.18-.52-.26-.77-3.45.1-6.48-.96-8.86-3.38-2.37-2.4-3.51-5.4-3.32-8.81-.18-.07-.3-.12-.42-.16-.12-.04-.25-.06-.4-.1ZM148.85,136.62c.14,3.47-.96,6.49-3.37,8.88-2.4,2.38-5.4,3.5-8.84,3.32-.09.29-.16.54-.24.84,3.96.71,7.35-.35,10.28-2.98,2.65-2.94,3.72-6.34,3-10.31-.3.09-.54.17-.83.26ZM153.88,62.22c3.2,1.23,5.61,3.36,6.89,6.5,1.28,3.14,1.2,6.36-.3,9.48.25.2.46.37.69.54,2.24-3.53,2.54-7.18,1.02-10.98-1.75-3.38-4.42-5.56-8.22-6.38-.03.31-.05.56-.08.84ZM129.17,153.85c-1.25,3.21-3.37,5.61-6.52,6.89-3.13,1.27-6.34,1.19-9.45-.31-.19.23-.37.43-.56.67,3.58,2.27,7.28,2.58,11.14.96,3.3-1.77,5.44-4.41,6.23-8.16-.33-.02-.58-.04-.84-.06ZM87.12,29.14c2.33-2.58,5.26-3.87,8.64-3.88,3.4-.02,6.27,1.4,8.63,3.86.12-.06.24-.12.36-.18.12-.07.24-.14.39-.23-2.37-3.32-5.54-5-9.56-5.13-3.87.26-6.98,1.89-9.22,5.17.26.13.49.25.77.39ZM162.65,105.1c3.3-2.33,4.96-5.47,5.16-9.41-.21-3.94-1.85-7.1-5.17-9.38-.14.27-.26.5-.39.77,2.57,2.32,3.86,5.25,3.88,8.63.02,3.39-1.39,6.27-3.87,8.63.12.25.24.48.39.76ZM30.97,113.13c-.11-.09-.21-.17-.31-.25-.11-.09-.23-.17-.37-.27-2.17,3.31-2.49,6.81-1.24,10.49,1.66,3.65,4.43,5.96,8.41,6.87.04-.3.07-.57.1-.84-3.21-1.24-5.62-3.37-6.9-6.51-1.27-3.13-1.2-6.33.31-9.48ZM130.02,37.42c-.83-3.87-3.08-6.58-6.58-8.31-3.76-1.39-7.34-1.07-10.77,1.13.2.24.37.45.56.67,3.13-1.51,6.35-1.58,9.46-.29,3.13,1.28,5.29,3.66,6.46,6.88.23-.01.43-.03.62-.04.06,0,.13-.02.24-.04ZM86.35,162.58c.01.07,0,.11.03.13.05.08.11.16.17.24,1.34,1.85,3.07,3.2,5.21,4.01,1.33.51,2.7.88,4.12.79,3.72-.22,6.76-1.77,8.98-4.82.07-.1.13-.21.22-.35-.28-.14-.52-.26-.77-.38-2.33,2.6-5.27,3.88-8.65,3.88-3.39,0-6.28-1.4-8.61-3.88-.25.14-.48.26-.7.37ZM78.74,30.23c-.05-.04-.1-.09-.15-.12-2.03-1.24-4.2-1.96-6.62-1.82-1.42.08-2.82.27-4.1.9-3.31,1.63-5.48,4.22-6.37,7.84-.03.12-.04.24-.07.39.17.02.3.04.43.05.14,0,.29,0,.4,0,1.26-3.21,3.39-5.61,6.55-6.88,3.13-1.25,6.33-1.16,9.42.32.17-.21.31-.38.45-.54.03-.04.04-.09.06-.14ZM28.78,86.26c-.14.09-.22.14-.3.2-1.67,1.22-2.98,2.73-3.81,4.65-.73,1.7-1.21,3.46-1,5.33.29,2.65,1.23,5.01,3.12,6.93.6.61,1.24,1.16,1.98,1.67.14-.27.27-.51.41-.77-2.58-2.31-3.87-5.25-3.89-8.62-.02-3.39,1.39-6.27,3.86-8.65-.12-.23-.24-.46-.38-.74ZM28.37,76.83c-.63.03-1.25.06-1.88.08-.22,0-.31.14-.41.3-.56.87-1.03,1.78-1.41,2.74-.03.09-.04.18-.08.32,1.71-.24,3.33-.62,4.94-1.16-.41-.8-.78-1.54-1.16-2.29ZM29.54,112.18c-1.64-.51-3.25-.93-4.99-1.14.44,1.17.96,2.2,1.61,3.17.06.09.21.17.32.17.63.05,1.27.06,1.89.09.38-.75.76-1.49,1.17-2.29ZM166.86,111.05c-1.72.25-3.34.62-4.96,1.17.4.79.78,1.54,1.17,2.3.58-.03,1.15-.08,1.71-.09.28,0,.46-.08.59-.33.44-.86.88-1.71,1.32-2.56.06-.13.09-.27.16-.48ZM80.34,24.6c-.08-.02-.12-.03-.14-.02-1.07.38-2.07.91-3.01,1.53-.1.06-.18.21-.19.32-.04.63-.06,1.27-.09,1.89.77.39,1.52.77,2.29,1.17.52-1.63.92-3.24,1.14-4.89ZM114.52,163.03c-.76-.39-1.51-.77-2.29-1.17-.53,1.64-.92,3.25-1.16,4.97,1.19-.43,2.23-.97,3.21-1.62.07-.04.14-.15.14-.24.04-.65.06-1.3.1-1.95ZM156.89,135.13c.1-.19.16-.3.21-.42.26-.77.51-1.55.79-2.31.21-.56.14-1.01-.35-1.41-.34-.29-.61-.67-.89-.98-.84.27-1.62.53-2.45.8.75,1.52,1.64,2.91,2.68,4.33ZM114.56,28.32c-.04-.59-.1-1.16-.1-1.73,0-.28-.09-.46-.33-.59-.89-.45-1.77-.91-2.67-1.36-.09-.05-.2-.05-.36-.08.27,1.71.62,3.34,1.17,4.92.79-.4,1.52-.77,2.29-1.16ZM56.25,156.85c1.14.53,2.23.88,3.37,1.12.1.02.24-.01.31-.07.49-.43.97-.87,1.45-1.3-.26-.81-.52-1.61-.79-2.44-1.52.75-2.92,1.65-4.34,2.69ZM135.12,34.45c-1.08-.5-2.16-.84-3.28-1.09-.11-.02-.27,0-.35.07-.49.43-.96.87-1.44,1.3.27.82.53,1.62.79,2.41,1.03-.41,3.71-2.1,4.28-2.7ZM76.87,163.02c.03.58.08,1.15.08,1.72,0,.28.09.46.34.59.88.45,1.74.9,2.62,1.34.11.05.24.07.42.13-.26-1.71-.61-3.34-1.17-4.94-.78.4-1.51.77-2.29,1.16ZM166.88,80.32c-.09-.24-.13-.4-.2-.54-.36-.73-.75-1.45-1.1-2.19-.23-.5-.57-.7-1.12-.64-.24.03-.48-.04-.73-.05-.23-.01-.45,0-.66,0-.39.75-.76,1.48-1.16,2.26,1.61.55,3.22.91,4.97,1.17ZM37.23,60.55c-.77-1.53-1.65-2.94-2.7-4.34-.51,1.14-.89,2.24-1.12,3.4-.02.08,0,.21.06.27.44.5.88.99,1.31,1.47.83-.27,1.61-.52,2.44-.79ZM135.14,156.92c-.96-.89-3.79-2.6-4.36-2.66-.25.79-.5,1.58-.74,2.37.47.43.93.84,1.38,1.26.16.15.33.12.5.07.43-.11.86-.21,1.28-.35.63-.21,1.25-.44,1.94-.7ZM61.4,34.72c-.47-.43-.93-.84-1.38-1.26-.15-.14-.32-.15-.5-.09-.95.31-1.9.61-2.84.93-.11.04-.21.11-.38.2,1.39,1.03,2.8,1.92,4.31,2.68.27-.82.52-1.61.79-2.45ZM37.21,130.77c-.86-.28-1.66-.53-2.46-.79-.4.44-.76.88-1.17,1.29-.21.21-.24.41-.16.66.32.96.63,1.93.96,2.88.03.08.1.14.17.25,1.01-1.37,1.89-2.76,2.66-4.29ZM154.21,60.57c.87.27,1.67.52,2.46.77.44-.48.86-.93,1.27-1.4.07-.08.11-.24.09-.35-.24-1.09-.57-2.15-1.03-3.16-.02-.04-.06-.07-.13-.15-1,1.36-1.89,2.75-2.66,4.29ZM154.4,132.89c.14,1.14.46,2.16,1.72,2.6-.59-.89-1.16-1.75-1.72-2.6ZM135.53,35.27c-.91.61-1.76,1.17-2.62,1.73,1.13-.15,2.16-.44,2.62-1.73ZM55.94,35.26c.45,1.3,1.5,1.56,2.61,1.73-.85-.56-1.69-1.12-2.61-1.73ZM37,132.88c-.55.84-1.11,1.68-1.7,2.56,1.25-.45,1.58-1.43,1.7-2.56ZM154.4,58.49c.56-.85,1.12-1.71,1.72-2.6-1.29.44-1.57,1.48-1.72,2.6ZM55.92,156.06c.91-.61,1.75-1.16,2.65-1.75-1.45.15-2.17.62-2.65,1.75ZM110.88,163.52c-.85.84-1.07,1.95-.61,3.02.2-1.01.4-2,.61-3.02ZM133,154.32s-.02.06-.04.1c.41.26.82.52,1.23.79.41.27.81.55,1.29.88-.46-1.26-1.44-1.57-2.49-1.76ZM80.52,163.56c.2.98.4,1.97.61,2.96.58-1.16.11-2.09-.61-2.96ZM37.05,58.47c-.05-1.29-.79-2.36-1.7-2.55.55.82,1.1,1.65,1.7,2.55ZM27.83,110.83c-.88-.86-1.93-1.06-2.95-.59,1,.2,1.94.39,2.95.59ZM24.89,81.07c1.04.48,2.06.27,2.94-.59-1.01.2-1.95.39-2.94.59ZM163.6,80.51c.77.83,1.83,1.05,2.99.6-1.02-.21-1.99-.4-2.99-.6ZM81.15,24.85c-.2,1-.4,1.98-.61,2.98.85-.82,1.11-2.08.61-2.98ZM163.6,110.86c.97-.2,1.95-.4,2.96-.6-1.19-.58-2.11-.09-2.96.6ZM110.32,24.88s-.06,0-.1,0c-.04.51-.33.99-.12,1.53.23.61.51,1.12.81,1.35-.2-.97-.39-1.93-.59-2.88Z"/>
      <g>
        <path class="cls-2" d="M45.18,74.75c-.93-1.05-1.57-2.19-2.01-3.44-.62-1.73-.9-3.53-1.09-5.34-.17-1.63-.22-3.28-.57-4.9-.12-.59-.31-1.16-.62-1.68-.15-.25-.17-.49.2-.43,1.24.2,2.39-.15,3.55-.49,2.01-.58,3.99-1.3,6.06-1.69.18-.03.28-.08.32-.29.21-1.19.49-2.36.48-3.57,0-.36-.07-.71-.14-1.06-.07-.39.12-.62.47-.52,1.31.35,2.58,0,3.87-.15.77-.09,1.09-.39,1.24-1.18.38-2.05,1.16-3.99,1.71-6,.26-.94.48-1.9.3-2.89-.05-.27.09-.41.33-.27,1.52.9,3.24.89,4.92,1.06,2.14.22,4.28.4,6.36,1.02,1.52.46,2.93,1.15,4.19,2.27.11-1.15.34-2.2.74-3.21.7-1.74,1.75-3.26,2.9-4.72,1.04-1.32,2.12-2.6,3.15-3.92.49-.62.87-1.3,1.05-2.07.06-.25.2-.44.42-.16.97,1.26,2.36,1.92,3.71,2.64,1.58.84,3.19,1.63,4.66,2.65.11.08.19.16.34.05,1.07-.75,2.2-1.41,3.07-2.4.19-.22.34-.48.51-.71.22-.29.5-.31.68,0,.75,1.28,2.02,1.96,3.13,2.82.43.33.74.35,1.21.02,1.6-1.12,3.4-1.92,5.1-2.86,1.05-.58,2.12-1.16,2.85-2.17.16-.22.34-.22.41.05.42,1.61,1.53,2.78,2.54,4.01,1.32,1.61,2.68,3.19,3.73,5.01.88,1.52,1.47,3.14,1.6,4.98.22-.17.39-.31.56-.44,1.61-1.25,3.48-1.86,5.45-2.25,2.15-.43,4.33-.5,6.5-.77,1.01-.12,1.99-.31,2.88-.83.27-.16.46-.13.41.23-.2,1.25.17,2.42.51,3.59.58,2,1.3,3.96,1.67,6.01.03.15.07.26.26.29,1.3.23,2.58.56,3.92.47.24-.02.48-.08.72-.12.4-.08.65.12.55.49-.42,1.58.08,3.1.32,4.63.02.15.09.26.27.29,2.46.43,4.77,1.39,7.19,1.99.79.2,1.59.35,2.41.2.25-.04.49.03.31.33-.8,1.32-.84,2.81-1.01,4.28-.2,1.73-.3,3.47-.64,5.18-.43,2.19-1.16,4.23-2.69,5.99.96.11,1.86.26,2.73.57,2.06.73,3.81,1.97,5.49,3.31,1.14.92,2.27,1.86,3.42,2.77.69.54,1.44,1.01,2.32,1.21.29.07.37.23.11.43-1.14.87-1.77,2.11-2.42,3.33-.9,1.68-1.72,3.39-2.8,4.96-.1.14-.18.26-.05.44.72,1.06,1.4,2.16,2.37,3.04.2.18.45.32.67.48.32.23.34.53,0,.74-1.41.86-2.14,2.29-3.07,3.56-.09.12-.06.22.02.35,1.29,1.87,2.22,3.94,3.33,5.9.51.91,1.05,1.8,1.92,2.43.25.18.28.37-.08.46-1.17.3-2.1,1.01-3.02,1.75-1.59,1.27-3.1,2.64-4.79,3.78-1.85,1.23-3.8,2.17-6.13,2.32.56.69,1.04,1.36,1.41,2.1,1.01,1.99,1.38,4.15,1.64,6.34.22,1.84.24,3.71.67,5.52.12.51.3.99.58,1.44.18.29.09.46-.25.4-1.17-.21-2.27.12-3.36.44-2.08.6-4.11,1.35-6.24,1.74-.14.03-.26.07-.29.22-.22,1.44-.68,2.86-.42,4.35.02.11.06.22.08.33.08.38-.14.65-.5.55-1.58-.42-3.1.08-4.63.31-.17.03-.26.11-.29.28-.44,2.51-1.43,4.86-2.03,7.33-.18.73-.27,1.47-.16,2.23.04.26,0,.54-.33.33-1.25-.74-2.66-.83-4.04-.97-2.35-.24-4.71-.38-6.99-1.03-1.61-.46-3.1-1.17-4.42-2.34-.08,1.26-.37,2.4-.84,3.49-.83,1.92-2.06,3.58-3.38,5.18-.83,1.01-1.65,2.02-2.46,3.04-.53.67-.96,1.4-1.17,2.23-.06.26-.2.44-.41.16-.89-1.17-2.16-1.81-3.41-2.48-1.66-.89-3.36-1.71-4.93-2.78-.14-.1-.25-.17-.43-.05-1.04.73-2.13,1.39-3,2.34-.18.2-.33.44-.49.67-.26.38-.54.38-.79,0-.86-1.38-2.28-2.11-3.53-3.03-.15-.12-.27-.02-.39.06-1.69,1.17-3.55,2.03-5.35,3.02-1.1.6-2.21,1.19-2.97,2.24-.14.19-.34.2-.4-.04-.49-1.9-1.9-3.19-3.05-4.65-.72-.92-1.5-1.8-2.17-2.77-1.38-1.98-2.49-4.08-2.64-6.63-1.35,1.19-2.86,1.91-4.51,2.36-1.62.44-3.28.66-4.96.81-1.33.12-2.66.2-3.98.45-.69.13-1.36.32-1.96.7-.23.14-.46.15-.4-.19.2-1.2-.12-2.33-.44-3.45-.6-2.06-1.34-4.08-1.73-6.2-.03-.19-.1-.28-.3-.31-.96-.15-1.92-.33-2.89-.46-.56-.08-1.13-.04-1.7.12-.4.12-.64-.12-.55-.52.38-1.58-.07-3.1-.34-4.64-.03-.19-.14-.24-.29-.26-2.07-.36-4.04-1.1-6.05-1.69-1.16-.34-2.31-.68-3.54-.49-.26.04-.42-.09-.27-.33.9-1.51.88-3.21,1.06-4.87.18-1.6.29-3.21.62-4.79.43-2.11,1.17-4.09,2.65-5.78-.5-.08-.94-.13-1.38-.21-2.26-.45-4.17-1.63-5.96-3-1.25-.96-2.46-1.99-3.69-2.98-.89-.72-1.8-1.4-2.94-1.68-.27-.07-.33-.23-.11-.4,1.38-1.05,2.03-2.6,2.81-4.05.78-1.45,1.51-2.92,2.44-4.28.1-.14.18-.25.05-.42-.68-.97-1.3-1.99-2.15-2.83-.27-.27-.57-.48-.89-.68-.32-.2-.36-.53-.05-.7,1.2-.69,1.88-1.83,2.64-2.9.58-.82.58-.83.05-1.64-1.01-1.54-1.78-3.21-2.67-4.82-.6-1.09-1.18-2.18-2.21-2.94-.23-.17-.2-.35.07-.42,1.28-.31,2.26-1.11,3.25-1.91,1.71-1.38,3.34-2.86,5.22-4.02,1.68-1.04,3.46-1.78,5.53-1.93Z"/>
        <path class="cls-8" d="M65.12,69.72c1.67,0,3.11.23,4.52.66.25.07.5.22.73,0,.23-.23.09-.48.02-.73-1.32-4.57-.77-8.85,2.21-12.64,2.51-3.2,5.89-4.93,9.95-5.05,5.7-.17,9.79,2.55,12.57,7.42.13.23.19.55.56.53.33-.01.39-.29.52-.52,2.29-4.13,5.69-6.77,10.43-7.36,6.79-.86,13.29,3.62,14.7,10.52.49,2.41.33,4.79-.39,7.14-.07.23-.2.46.02.68.23.24.48.11.72.03,7.01-2.25,14.45,1.29,16.9,8.06,2.35,6.49-.41,13.4-6.66,16.69-.23.12-.5.21-.49.54,0,.3.27.38.48.49,4.07,2.24,6.7,5.55,7.38,10.2.99,6.75-3.41,13.49-10.49,14.94-2.41.5-4.79.33-7.14-.39-.23-.07-.46-.2-.68.02-.24.24-.1.48-.03.73,1.36,4.67.72,9-2.35,12.84-4.76,5.95-13.86,6.55-19.39,1.33-1.24-1.18-2.28-2.5-3.06-4.03-.11-.21-.21-.41-.49-.4-.28.01-.36.23-.47.44-2,3.71-4.98,6.22-9.12,7.22-7.28,1.75-14.78-3.19-16.09-10.54-.42-2.34-.26-4.63.44-6.9.07-.24.19-.47-.02-.69-.23-.24-.48-.1-.73-.02-7.58,2.44-15.34-1.79-17.33-9.45-1.45-5.6.95-11.46,6.04-14.69.36-.23.73-.42,1.1-.63.21-.12.45-.21.43-.52,0-.29-.22-.37-.43-.47-2.07-1.08-3.8-2.56-5.14-4.48-5.55-7.95-1.02-18.96,8.51-20.74.82-.15,1.65-.2,2.29-.22Z"/>
        <path class="cls-5" d="M75.63,53.2c-3.2,2.02-5.3,4.85-6.29,8.54-1.59-.76-3.2-1.46-4.83-2.08-1.99-.75-4.02-1.39-6.09-1.92-.65-.16-.84.04-.68.69.95,3.68,2.22,7.24,3.88,10.65.04.07.06.15.11.25-3.67.99-6.51,3.09-8.55,6.33-1.09-1.66-1.79-3.43-2.19-5.32-.73-3.44-.46-6.86.14-10.28.33-1.89.8-3.75,1.07-5.65.09-.62.14-1.23.09-1.85-.02-.19,0-.31.24-.29,2.03.12,3.96-.46,5.92-.83,2.61-.5,5.22-.92,7.89-.88,3.12.05,6.1.68,8.81,2.3.13.08.25.15.37.24.04.03.07.07.11.11Z"/>
        <path class="cls-5" d="M75.66,138.12c-1.49.99-3.06,1.64-4.73,2.06-2.8.7-5.64.7-8.49.36-2.56-.3-5.05-.94-7.59-1.36-.76-.12-1.52-.21-2.29-.16-.14,0-.33.08-.31-.21.11-2.06-.46-4.03-.85-6.02-.48-2.51-.89-5.03-.87-7.6.03-3.19.64-6.24,2.3-9.01.1-.17.21-.33.33-.52.92,1.47,2.02,2.75,3.38,3.79,1.45,1.12,3.04,1.94,4.8,2.42.32.09.37.16.22.47-1.61,3.33-2.86,6.8-3.8,10.38-.03.13-.07.25-.09.38-.08.43.15.65.59.53,1.45-.38,2.88-.79,4.3-1.27,2.19-.75,4.33-1.6,6.41-2.61.18-.09.34-.24.44.13.98,3.55,3.08,6.27,6.23,8.28Z"/>
        <path class="cls-5" d="M95.65,156.97c-1.38-1.53-3.14-2.53-4.81-3.64-2.81-1.88-5.52-3.88-7.67-6.53-1.63-2.01-2.83-4.24-3.39-6.79,0-.04,0-.09-.01-.18,3.69.81,7.18.34,10.5-1.58.2.55.4,1.09.61,1.62,1.16,3.11,2.62,6.09,4.31,8.95.33.56.61.55.95-.01,1.91-3.23,3.5-6.6,4.73-10.14.12-.35.21-.41.54-.22,3.02,1.69,6.24,2.14,9.62,1.48.53-.1.53-.1.4.43-.71,2.9-2.24,5.35-4.24,7.52-1.9,2.06-4.13,3.71-6.45,5.27-1.48,1-3.04,1.9-4.37,3.12-.25.23-.48.48-.72.72Z"/>
        <path class="cls-5" d="M138.09,75.61c-2.02-3.19-4.85-5.28-8.52-6.27.72-1.5,1.37-3,1.96-4.53.79-2.05,1.45-4.14,2.01-6.27.21-.79.03-.98-.74-.78-3.59.94-7.08,2.17-10.42,3.8-.32.15-.43.17-.54-.22-.96-3.38-2.94-6.02-5.88-7.94-.1-.06-.19-.13-.31-.21,1.27-.88,2.65-1.47,4.1-1.89,2.62-.76,5.29-.86,7.98-.64,2.91.24,5.74.97,8.61,1.46.79.13,1.58.24,2.38.18.15-.01.33-.07.32.21-.11,2,.45,3.9.82,5.83.52,2.71.97,5.42.9,8.19-.08,3.09-.72,6.03-2.34,8.71-.08.13-.14.29-.32.39Z"/>
        <path class="cls-5" d="M138.24,90.27c1.91-3.29,2.4-6.78,1.58-10.52,1.55.3,2.96.86,4.3,1.6,3.02,1.69,5.34,4.13,7.38,6.87,1.21,1.62,2.27,3.34,3.42,5,.6.87,1.24,1.72,2.07,2.4-1.74,1.59-2.83,3.64-4.13,5.54-1.64,2.38-3.38,4.67-5.59,6.57-2.09,1.8-4.43,3.13-7.14,3.76-.09.02-.19.07-.3-.01.36-1.6.47-3.23.28-4.88-.21-1.85-.76-3.59-1.68-5.21-.17-.29-.18-.4.18-.52,3.55-1.21,6.92-2.82,10.15-4.73.62-.37.62-.63,0-1-3.16-1.86-6.46-3.42-9.92-4.65-.2-.07-.39-.14-.61-.22Z"/>
        <path class="cls-5" d="M115.69,138.09c1.09-.69,2.09-1.48,2.96-2.43,1.52-1.64,2.59-3.54,3.19-5.69.1-.35.19-.39.51-.24,3.36,1.63,6.86,2.88,10.47,3.82.73.19.91.02.72-.71-.9-3.55-2.13-6.99-3.71-10.3-.27-.56-.27-.56.33-.74,3.23-.99,5.79-2.9,7.68-5.71.09-.13.17-.26.29-.44.75,1.06,1.26,2.2,1.67,3.38.99,2.9,1.12,5.89.85,8.92-.26,2.89-.99,5.7-1.47,8.56-.12.72-.2,1.45-.16,2.19.01.18.05.35-.25.33-1.98-.1-3.87.45-5.78.82-2.64.51-5.29.95-7.99.91-3.15-.05-6.16-.69-8.9-2.35-.13-.08-.3-.13-.39-.32Z"/>
        <path class="cls-5" d="M51.49,79.74c-.83,3.75-.34,7.24,1.58,10.54-1.91.67-3.76,1.41-5.57,2.26-1.71.8-3.38,1.68-5,2.65-.56.33-.56.62,0,.95,3.23,1.89,6.61,3.5,10.15,4.73.35.12.41.2.21.54-1.7,3.06-2.15,6.31-1.45,9.73.09.42,0,.41-.36.33-3.01-.73-5.53-2.31-7.76-4.41-2.04-1.91-3.67-4.14-5.21-6.44-.92-1.36-1.76-2.78-2.84-4.03-.28-.33-.8-.62-.83-.96-.02-.28.55-.58.83-.9,1.16-1.37,2.08-2.91,3.07-4.4,1.7-2.52,3.53-4.93,5.87-6.9,2.12-1.79,4.49-3.1,7.3-3.69Z"/>
        <path class="cls-5" d="M79.82,51.26c.39-1.96,1.23-3.73,2.34-5.37,1.99-2.95,4.69-5.17,7.59-7.17,1.59-1.1,3.26-2.09,4.77-3.31.41-.33.76-.71,1.11-1.09,1.36,1.51,3.1,2.5,4.75,3.6,2.61,1.74,5.13,3.58,7.21,5.95,1.87,2.12,3.25,4.5,3.9,7.28.02.06.03.13.04.19,0,.03,0,.06-.02.13-.95-.19-1.91-.34-2.88-.37-2.56-.07-4.97.5-7.21,1.76-.34.19-.43.15-.55-.21-1.21-3.53-2.82-6.88-4.71-10.1-.37-.64-.65-.63-1.03.01-1.88,3.2-3.46,6.55-4.69,10.06-.12.36-.2.44-.57.23-2.96-1.64-6.11-2.12-9.44-1.5-.1.02-.19.02-.29.04-.14.03-.31.14-.33-.13Z"/>
        <path class="cls-6" d="M101.5,153.62c1.21-.85,2.39-1.66,3.49-2.58,2.44-2.02,4.57-4.31,6-7.17.62-1.23,1.09-2.5,1.34-3.86.06-.32.18-.51.52-.6.6-.16,1.16-.42,1.71-.71.2-.1.34-.11.53.02,2.96,1.99,6.28,2.76,9.8,2.83,2.47.05,4.9-.27,7.32-.74.08-.01.16-.03.28-.04-.12.8-.34,1.54-.56,2.28-.44,1.48-.91,2.95-1.37,4.43-.04.14-.05.31-.3.28-2.59-.3-5.2-.36-7.75-.92-2.38-.53-4.55-1.45-6.27-3.26-.35-.37-.66-.76-.95-1.17-.09-.12-.18-.2-.32-.15-.17.05-.15.19-.13.32.68,3.89-.95,7.05-3.22,9.99-1.15,1.48-2.37,2.9-3.55,4.35-.09.11-.14.25-.34.13-2.03-1.16-4.19-2.09-6.22-3.42Z"/>
        <path class="cls-6" d="M65.91,49.77c-2.24-.02-4.45.25-6.64.69-.42.09-.48.04-.38-.4.5-2.12,1.28-4.16,1.86-6.26.05-.2.13-.27.33-.25,3.13.37,6.31.38,9.35,1.37,2.27.73,4.17,1.97,5.55,3.93.1.14.19.29.39.19.18-.08.12-.24.09-.38-.44-2.48.11-4.78,1.28-6.96,1.17-2.19,2.79-4.04,4.37-5.92.38-.45.75-.9,1.11-1.36.12-.16.21-.24.43-.12,1.89,1.09,3.88,1.97,5.74,3.12.33.2.42.29.03.55-2.4,1.61-4.65,3.4-6.53,5.62-1.95,2.29-3.38,4.85-3.95,7.84-.05.24-.16.36-.38.42-.64.19-1.25.46-1.84.76-.18.09-.3.09-.48-.02-2.75-1.85-5.83-2.66-9.11-2.81-.4-.02-.81,0-1.22,0Z"/>
        <path class="cls-6" d="M153.59,89.78c-1.02-1.5-2.09-2.98-3.3-4.34-2.53-2.85-5.45-5.12-9.17-6.2-.51-.15-1.15-.13-1.52-.45-.35-.3-.34-.97-.61-1.4-.41-.66-.29-1.15.11-1.78,1.72-2.75,2.37-5.82,2.45-9.02.06-2.6-.28-5.16-.78-7.74.28-.07.51.07.75.12,2.03.48,3.97,1.23,5.98,1.79.18.05.28.09.25.32-.32,2.66-.37,5.36-.98,7.99-.66,2.81-1.92,5.25-4.35,6.95-.13.09-.25.18-.17.35.08.17.23.13.38.11,2.62-.46,5.03.17,7.31,1.46,1.96,1.1,3.64,2.56,5.36,3.99.53.44,1.05.87,1.58,1.31.12.1.28.15.15.38-1.16,2.03-2.09,4.19-3.38,6.15,0,0-.02,0-.06.02Z"/>
        <path class="cls-6" d="M37.69,101.5c1.04,1.53,2.09,2.98,3.28,4.33,2.45,2.76,5.26,5,8.83,6.12.4.13.81.29,1.22.33.55.05.82.3.95.82.08.36.22.72.42,1.03.32.49.25.86-.07,1.34-1.56,2.4-2.28,5.08-2.52,7.91-.24,2.91.09,5.79.64,8.64.08.43.02.49-.41.39-2.12-.5-4.16-1.29-6.26-1.87-.16-.04-.26-.09-.24-.29.37-3.1.38-6.24,1.33-9.26.73-2.3,1.95-4.24,3.94-5.66.13-.09.3-.17.23-.38-.06-.17-.19-.15-.32-.13-3.69.64-6.75-.81-9.61-2.92-1.64-1.21-3.13-2.6-4.74-3.85-.16-.12-.19-.22-.09-.4,1.12-1.96,2.03-4.04,3.25-5.95.03-.05.07-.1.15-.21Z"/>
        <path class="cls-6" d="M101.49,37.69c1.68-1.06,3.38-1.91,5.08-2.78.2-.1.4-.21.6-.32q.73-.4,1.23.23c1.11,1.4,2.33,2.72,3.4,4.16,1.38,1.84,2.54,3.78,3,6.07.23,1.14.26,2.29.08,3.45-.03.18-.2.44.1.55.25.1.32-.16.43-.31,1.7-2.35,4.09-3.55,6.83-4.2,1.99-.47,4.02-.62,6.04-.79.63-.05,1.26-.12,1.89-.2.21-.02.31,0,.38.24.59,2.1,1.35,4.14,1.87,6.26.11.44.01.48-.4.4-2.86-.55-5.73-.89-8.64-.64-2.95.25-5.72,1.04-8.2,2.7-.25.17-.43.19-.7.05-.55-.31-1.15-.53-1.75-.72-.18-.05-.3-.12-.34-.34-.87-4.43-3.42-7.8-6.74-10.69-1.29-1.12-2.68-2.12-4.15-3.12Z"/>
        <path class="cls-6" d="M89.81,153.62c-1.15.76-2.34,1.36-3.51,1.99-.86.46-1.73.9-2.59,1.36-.15.08-.27.22-.44,0-1.53-1.99-3.28-3.79-4.66-5.9-1.14-1.75-2.01-3.61-2.24-5.71-.1-.9-.07-1.79.1-2.68.03-.16.09-.34-.12-.42-.17-.06-.26.06-.35.19-1.67,2.39-4.06,3.64-6.81,4.3-1.92.46-3.89.62-5.85.79-.73.06-1.46.14-2.19.21-.16.02-.31.07-.37-.17-.61-2.22-1.45-4.38-1.95-6.64,0-.03,0-.06.01-.13.86.15,1.72.31,2.58.43,4.1.57,8.15.58,12.07-1.02.94-.38,1.83-.84,2.66-1.42.23-.16.41-.19.66-.05.56.31,1.15.54,1.76.73.23.07.34.19.39.43.63,3.32,2.3,6.09,4.56,8.54,1.72,1.87,3.71,3.42,5.8,4.85.16.11.32.22.51.35Z"/>
        <path class="cls-6" d="M47.18,76.31c.36-.01.93.05,1.49.15.15.03.3.07.37-.11.07-.17-.04-.26-.17-.35-2.94-2.07-4.09-5.11-4.64-8.48-.34-2.09-.41-4.21-.67-6.31-.02-.18-.1-.36.21-.45,2.12-.58,4.17-1.36,6.31-1.88.45-.11.45.01.38.38-.54,2.85-.89,5.72-.65,8.64.24,2.95,1.04,5.72,2.69,8.21.17.26.22.45.06.73-.3.54-.53,1.12-.7,1.71-.07.22-.19.35-.43.39-3.53.68-6.42,2.5-8.96,4.96-1.72,1.66-3.17,3.54-4.5,5.52-.26.39-.36.3-.56-.03-1.13-1.86-2.04-3.85-3.11-5.75-.08-.14-.13-.24.04-.37,2.19-1.69,4.17-3.65,6.56-5.08,1.87-1.12,3.86-1.88,6.29-1.88Z"/>
        <path class="cls-6" d="M153.62,101.49c.88,1.39,1.6,2.79,2.32,4.19.34.65.68,1.29,1.03,1.94.08.14.18.26-.02.41-2.08,1.61-3.98,3.46-6.22,4.88-1.77,1.12-3.65,1.93-5.77,2.06-.78.05-1.56.02-2.34-.12-.14-.02-.3-.08-.38.11-.07.17.05.27.18.35,2.69,1.88,3.9,4.62,4.51,7.71.39,1.97.5,3.97.68,5.96,0,.05,0,.1,0,.15.02.45.31,1.01.06,1.31-.25.29-.83.29-1.26.43-1.73.55-3.46,1.13-5.23,1.56-.29.07-.44.12-.35-.31.53-2.67.85-5.37.7-8.1-.17-3.19-.96-6.19-2.77-8.88-.14-.21-.18-.38-.05-.62.32-.57.55-1.18.75-1.79.06-.19.12-.3.34-.34,4.77-.95,8.29-3.8,11.28-7.45.89-1.08,1.68-2.23,2.53-3.44Z"/>
        <path class="cls-6" d="M58.68,58.64c1.58.43,3.1.89,4.6,1.43,1.88.68,3.72,1.45,5.53,2.31.28.14.35.27.3.59-.35,2.26-.25,3.84.36,6.49-.42-.09-.82-.19-1.23-.27-1.78-.35-3.56-.38-5.34-.08-.21.04-.34.04-.46-.2-1.57-3.22-2.81-6.57-3.73-10.03-.01-.05-.02-.1-.03-.23Z"/>
        <path class="cls-9" d="M95.64,147.95c-1.29-2.2-2.41-4.45-3.37-6.78-.42-1.02-.79-2.06-1.18-3.1-.05-.14-.15-.28.06-.42.94-.62,1.75-1.4,2.52-2.23.76-.82,1.39-1.75,1.98-2.74.45.72.88,1.41,1.39,2.04.87,1.07,1.84,2.03,2.96,2.82.17.12.33.21.23.5-1.18,3.39-2.67,6.63-4.46,9.74-.03.05-.08.1-.14.16Z"/>
        <path class="cls-9" d="M147.99,95.64c-2.14,1.26-4.31,2.33-6.54,3.28-1.11.47-2.23.89-3.37,1.29-.18.06-.31.12-.46-.09-1.29-1.85-2.95-3.28-4.87-4.43-.01,0-.02-.03-.05-.06,1.46-.84,2.77-1.88,3.88-3.14.36-.4.68-.83,1.01-1.26.12-.16.2-.24.43-.16,3.45,1.19,6.74,2.72,9.97,4.57Z"/>
        <path class="cls-9" d="M95.64,43.32c.78,1.3,1.47,2.61,2.11,3.94.93,1.92,1.74,3.88,2.44,5.89.08.23.13.39-.13.57-1.76,1.23-3.15,2.81-4.25,4.65-.05.08-.11.15-.17.24-1.13-1.97-2.58-3.61-4.42-4.92-.14-.1-.24-.16-.16-.38,1.2-3.46,2.72-6.78,4.58-9.99Z"/>
        <path class="cls-6" d="M69.48,121.82c-.61,2.25-.75,4.44-.36,6.66.06.33-.16.35-.33.43-2.21,1.08-4.48,2-6.82,2.76-1.08.35-2.17.66-3.33,1.02.25-1.1.57-2.1.89-3.09.79-2.43,1.74-4.79,2.85-7.09.1-.2.16-.36.46-.31,2.21.38,4.4.24,6.64-.36Z"/>
        <path class="cls-6" d="M132.66,58.67c-.96,3.57-2.21,6.96-3.8,10.23-.07.15-.12.25-.35.22q-3.39-.31-6.67.32c.19-.87.38-1.71.47-2.58.12-1.29.1-2.57-.1-3.85-.04-.23-.11-.44.21-.6,3.23-1.55,6.57-2.8,10.04-3.72.04-.01.09-.01.2-.03Z"/>
        <path class="cls-6" d="M121.86,121.83c1.67.45,3.31.64,4.98.54.54-.03,1.07-.11,1.6-.18.19-.02.31-.01.42.21,1.6,3.28,2.84,6.68,3.81,10.3-1.01-.3-1.95-.57-2.89-.87-2.48-.79-4.89-1.76-7.23-2.88-.22-.11-.42-.18-.36-.52.37-2.15.24-4.28-.3-6.38,0-.04,0-.09-.02-.2Z"/>
        <path class="cls-9" d="M43.35,95.64c2.33-1.38,4.74-2.54,7.22-3.55.87-.36,1.76-.66,2.64-.99.2-.07.33-.11.49.12,1.29,1.84,2.94,3.29,4.93,4.44-.87.53-1.69,1.07-2.44,1.71-.92.79-1.75,1.66-2.44,2.65-.17.25-.31.28-.6.18-3.34-1.17-6.53-2.64-9.6-4.39-.07-.04-.13-.1-.21-.16Z"/>
        <path class="cls-2" d="M115.43,47.26c.08.19-.07.42.11.6-.05.05-.11.29-.17.06-.05-.2-.05-.45.07-.65Z"/>
        <path class="cls-10" d="M79.82,51.26c.07.14.21.1.33.13-.11.08-.23.13-.36.06-.09-.05-.03-.14.03-.2Z"/>
        <path class="cls-2" d="M71.54,71.32c-.42-1.8-.62-3.63-.5-5.48.26-3.71,1.52-7.01,4.36-9.51,3.63-3.2,7.8-3.57,12.19-1.87,3.45,1.33,5.98,3.8,7.89,6.94.05.08.1.16.17.28.74-1.25,1.56-2.4,2.55-3.43,2.56-2.66,5.59-4.42,9.33-4.71,6.32-.48,10.36,3.65,11.92,8.19,1.06,3.09,1.1,6.22.35,9.38-.04.15-.07.3-.12.51,1.27-.3,2.51-.54,3.78-.59,2.87-.13,5.61.34,8.15,1.73,5.56,3.02,7.66,9.13,5.17,15.02-1.4,3.31-3.76,5.79-6.79,7.65-.11.07-.22.14-.36.22,1.52.89,2.89,1.93,4.08,3.2,2.54,2.73,4.12,5.89,4.08,9.69-.04,4.41-2.15,7.65-5.91,9.84-2.95,1.72-6.17,2.14-9.52,1.79-.89-.09-1.75-.29-2.68-.5.36,1.41.6,2.79.62,4.19.07,4.33-1.11,8.22-4.44,11.14-3.72,3.26-7.98,3.54-12.42,1.72-3.22-1.32-5.62-3.65-7.46-6.58-.09-.14-.17-.28-.26-.42-.02-.03-.05-.04-.09-.07-1.26,2.16-2.87,4.02-4.91,5.48-2.72,1.94-5.72,2.94-9.08,2.6-3.61-.37-6.35-2.2-8.32-5.19s-2.53-6.33-2.23-9.85c.08-1,.3-1.98.54-3.01-1.73.46-3.43.68-5.16.62-4.29-.16-8.02-1.59-10.7-5.07-2.57-3.35-2.87-7.11-1.5-11.01,1.27-3.62,3.75-6.27,6.96-8.28.14-.09.27-.17.44-.27-1.8-1.06-3.39-2.32-4.7-3.9-2.11-2.54-3.43-5.41-3.46-8.76-.03-4.29,1.89-7.53,5.46-9.81,2.98-1.9,6.28-2.39,9.74-2.09.88.08,1.73.28,2.6.44.23.09.29,0,.22-.22Z"/>
        <path class="cls-11" d="M71.54,71.32c.07.09.15.2.04.29-.07.06-.18,0-.26-.07.13-.01.2-.09.22-.22Z"/>
        <path class="cls-12" d="M119.88,66.74c0,1.75-.21,3.26-.62,4.75-.05.19-.24.41-.02.59.17.14.37.01.56-.04,2.96-.78,5.92-.88,8.87-.02,3.22.94,5.85,2.73,7.44,5.74,1.83,3.45,1.62,6.97,0,10.43-1.45,3.09-3.78,5.38-6.71,7.08-.16.09-.4.13-.41.37,0,.24.24.28.41.37,3.35,1.97,5.91,4.64,7.24,8.34,2.23,6.22-.74,12.37-6.99,14.6-3.25,1.17-6.54,1.17-9.85.3-.19-.05-.4-.22-.59-.01-.16.19,0,.38.05.55.97,3.69.91,7.33-.71,10.83-1.62,3.49-4.24,5.86-8.13,6.56-3.4.61-6.48-.3-9.3-2.21-2.14-1.45-3.81-3.34-5.1-5.58-.09-.16-.12-.41-.37-.4-.24,0-.28.24-.38.4-2,3.39-4.7,5.98-8.48,7.28-6.14,2.11-12.12-.76-14.4-6.85-1.24-3.32-1.25-6.68-.35-10.07.05-.18.18-.38,0-.55-.15-.14-.34-.01-.51.03-3.88,1.01-7.69.93-11.32-.91-3.34-1.69-5.55-4.33-6.17-8.11-.54-3.28.36-6.26,2.17-8.99,1.44-2.17,3.33-3.86,5.57-5.17.19-.11.49-.13.5-.41,0-.31-.32-.33-.52-.45-3.29-1.96-5.81-4.61-7.12-8.27-1.27-3.55-1.05-6.99,1.11-10.16,1.83-2.69,4.46-4.22,7.58-4.96,2.74-.64,5.46-.51,8.17.22.18.05.38.19.55,0,.15-.16.02-.34-.02-.51-1.07-4.18-.92-8.25,1.32-12.04,2.21-3.76,5.54-5.7,9.95-5.56,2.86.09,5.37,1.19,7.62,2.92,1.79,1.38,3.21,3.08,4.34,5.04.09.16.13.4.37.41.24,0,.28-.25.37-.41,2.07-3.5,4.87-6.14,8.8-7.39,5.43-1.73,10.64.39,13.36,5.4,1.19,2.2,1.69,4.56,1.7,6.83Z"/>
        <path class="cls-2" d="M74.57,122.81c.05-1.12.12-2.24.37-3.34.07-.29.02-.45-.31-.48-.55-.05-1.09-.17-1.65-.05-.45.09-.65-.09-.56-.53.11-.59-.02-1.16-.08-1.74-.04-.35-.19-.37-.48-.31-1.95.39-3.91.5-5.87.15-2.43-.42-4.61-1.36-6.23-3.26-2.39-2.8-2.46-5.95-1.07-9.19,1.13-2.64,3.08-4.6,5.44-6.18.32-.21.36-.35.12-.65-.34-.42-.64-.86-1.1-1.17-.35-.24-.34-.51.01-.78.45-.34.78-.77,1.12-1.22.21-.27.21-.41-.11-.62-1.97-1.3-3.64-2.9-4.84-4.95-1.35-2.29-1.94-4.73-1.24-7.35.81-2.99,2.93-4.76,5.73-5.8,2.56-.94,5.2-.96,7.85-.45.45.09.64.07.68-.45.04-.5.11-1,.02-1.5-.07-.4.1-.59.51-.53.56.07,1.1,0,1.65-.06.42-.05.49-.21.41-.6-.26-1.16-.37-2.35-.35-3.54.04-1.99.42-3.9,1.33-5.7,2.03-3.98,6.09-5.66,10.33-4.24,3.06,1.03,5.3,3.11,7.11,5.7.36.52.36.52.88.13.38-.28.74-.58,1.01-.98.24-.35.52-.35.77,0,.35.49.83.82,1.3,1.17.26.2.36.12.51-.11,1.1-1.67,2.43-3.14,4.08-4.3,1.81-1.28,3.79-2.09,6.03-2.11,2.99-.02,5.29,1.31,6.92,3.78,1.25,1.88,1.77,4,1.86,6.23.06,1.37-.06,2.73-.35,4.08-.06.28.01.38.28.42.58.07,1.15.17,1.75.05.37-.08.56.12.51.5-.08.57-.02,1.13.06,1.7.05.35.17.46.53.38,1.65-.35,3.32-.46,5-.28,1.94.21,3.76.77,5.38,1.88,3.29,2.26,4.46,5.97,3.12,9.81-1.03,2.94-3.03,5.12-5.53,6.89-.66.46-.67.46-.18,1.09.26.34.54.65.89.9.37.26.37.5,0,.77-.47.34-.8.8-1.15,1.26-.22.28-.15.4.12.59,2.14,1.43,3.95,3.19,5.15,5.5,1.36,2.63,1.75,5.35.45,8.12-1.15,2.46-3.23,3.86-5.75,4.65-2.46.78-4.97.76-7.48.25-.37-.07-.5,0-.53.36-.05.53-.16,1.06-.04,1.6.09.44-.09.61-.54.55-.59-.07-1.17-.01-1.75.09-.28.05-.36.14-.3.45.49,2.43.54,4.86-.14,7.26-.62,2.19-1.71,4.09-3.62,5.41-2.67,1.84-5.52,1.82-8.41.6-2.67-1.12-4.66-3.05-6.25-5.43-.27-.4-.45-.42-.79-.12-.38.33-.79.62-1.08,1.05-.23.34-.51.34-.75,0-.32-.44-.74-.77-1.16-1.1-.32-.25-.49-.26-.74.13-1.06,1.62-2.37,3.02-3.95,4.15-1.9,1.36-4,2.21-6.37,2.14-2.97-.08-5.2-1.49-6.76-3.99-1.29-2.05-1.73-4.33-1.76-6.71Z"/>
        <path class="cls-6" d="M119.3,81.37c-.01.54-.05,1.23-.22,1.92-.3,1.24-.93,2.25-1.97,2.98-.24.17-.39.37-.28.65.11.3.37.23.62.19,1.74-.28,3.2.34,4.49,1.44,1.17.99,2.05,2.22,2.88,3.49.76,1.16,1.38,2.4,2.35,3.42.11.12.13.19,0,.32-1.05,1.11-1.7,2.49-2.54,3.75-.79,1.19-1.62,2.33-2.72,3.25-1.3,1.09-2.75,1.72-4.5,1.42-.24-.04-.5-.07-.63.22-.13.3.06.45.28.59,1.45,1.02,2.04,2.48,2.19,4.18.17,2-.28,3.92-.72,5.84-.21.9-.45,1.8-.46,2.74,0,.12.04.25-.17.26-1.82.09-3.53.74-5.31,1.03-1.62.27-3.23.42-4.84-.05-1.12-.32-2.03-.93-2.71-1.88-.07-.09-.13-.19-.22-.26-.13-.11-.3-.13-.46-.05-.17.08-.24.23-.21.4.51,2.81-1.05,4.62-3,6.25-.99.83-2.1,1.48-3.19,2.16-.73.46-1.47.9-2.1,1.51-.09.08-.15.21-.31.06-1.25-1.17-2.81-1.87-4.2-2.84-.95-.66-1.87-1.36-2.64-2.23-1.22-1.38-1.95-2.92-1.57-4.82.05-.23-.04-.42-.26-.53-.19-.1-.37-.03-.47.13-1.44,2.11-3.58,2.47-5.91,2.35-1.42-.07-2.8-.41-4.18-.72-.92-.21-1.83-.46-2.79-.46-.14,0-.24,0-.25-.2-.08-1.8-.73-3.5-1.03-5.26-.27-1.6-.42-3.2.02-4.79.32-1.16.93-2.1,1.91-2.8.22-.16.44-.32.33-.63-.12-.33-.41-.25-.67-.21-2.15.33-3.78-.67-5.2-2.12-1.03-1.05-1.83-2.29-2.61-3.53-.59-.94-1.11-1.92-1.91-2.71-.11-.11-.13-.18,0-.31.96-1,1.56-2.23,2.3-3.38.95-1.47,1.95-2.89,3.38-3.96,1.23-.91,2.59-1.35,4.12-1.07.25.04.47.01.59-.22.11-.22.02-.41-.18-.54-1.73-1.16-2.26-2.9-2.32-4.86-.05-1.85.39-3.62.8-5.39.2-.86.4-1.71.41-2.6,0-.16.02-.23.2-.24,1.61-.04,3.12-.61,4.69-.91,1.69-.33,3.38-.55,5.09-.16,1.27.29,2.32.92,3.08,1.99.16.22.32.44.64.31.32-.13.24-.4.2-.67-.25-1.6.26-2.98,1.24-4.22.99-1.26,2.27-2.19,3.59-3.06,1.19-.79,2.49-1.42,3.54-2.43.09-.09.15-.13.27-.02,1.14,1.09,2.58,1.76,3.87,2.62,1.17.78,2.29,1.62,3.19,2.71,1.06,1.28,1.68,2.7,1.38,4.41-.04.25-.09.54.23.67.32.13.46-.12.62-.33,1.12-1.55,2.72-2.08,4.54-2.17,1.95-.1,3.81.38,5.69.8.81.19,1.61.4,2.45.38.15,0,.29,0,.3.21.06,1.78.7,3.44,1,5.17.15.87.27,1.74.27,2.79Z"/>
        <path class="cls-5" d="M64.73,93.35c-2.89-1.93-5.22-4.28-6.19-7.69-1.19-4.19.74-7.98,4.91-9.71,2.73-1.13,5.55-1.13,8.4-.59.24.04.28.15.22.37-.38,1.53-.74,3.07-.85,4.65-.02.28-.21.19-.35.2-1.74.07-3.47.22-5.19.54-.94.17-1.87.41-2.81.63-.43.1-.42.29-.23.62,1.36,2.31,2.94,4.46,4.79,6.4.13.14.31.23.1.47-1.09,1.24-1.92,2.67-2.81,4.12Z"/>
        <path class="cls-5" d="M116.3,68.89c-.06.99-.16,1.98-.36,2.95-.05.23-.12.29-.35.24-1.53-.38-3.07-.75-4.65-.84-.26-.02-.21-.19-.22-.35-.09-2.68-.44-5.31-1.15-7.9-.15-.57-.18-.59-.71-.28-2.29,1.33-4.4,2.9-6.31,4.74-.22.21-.34.22-.57.02-1.14-.98-2.42-1.76-3.7-2.53-.16-.1-.36-.15-.17-.43,1.7-2.53,3.8-4.6,6.7-5.68,4.67-1.75,8.95.3,10.73,5.09.6,1.61.8,3.28.76,4.98Z"/>
        <path class="cls-5" d="M75,68.26c.01-1.89.39-3.88,1.39-5.73,1.91-3.56,5.5-5.09,9.38-3.95,2.9.86,5.06,2.73,6.85,5.1.24.32.64.7.62,1.01-.03.32-.6.46-.93.68-1.03.66-2.07,1.3-2.98,2.12-.22.2-.35.18-.56-.02-1.89-1.84-4-3.38-6.27-4.72-.58-.34-.61-.33-.79.34-.66,2.51-1.07,5.06-1.09,7.67,0,.37-.12.48-.5.51-1.45.1-2.86.46-4.26.81-.34.09-.45.02-.52-.32-.2-1.09-.32-2.19-.33-3.49Z"/>
        <path class="cls-5" d="M68.66,116.31c-2.05,0-4.1-.32-5.98-1.31-4.14-2.18-5.57-6.44-3.63-10.76,1.17-2.59,3.08-4.52,5.4-6.1.26-.18.35-.05.47.15.8,1.31,1.59,2.62,2.61,3.77.2.23.07.31-.07.46-1.82,1.9-3.38,4-4.72,6.27-.37.62-.36.62.34.81,2.53.69,5.1,1.03,7.71,1.12.35.01.42.13.44.45.11,1.45.45,2.86.81,4.26.09.35.05.48-.33.54-1,.18-2,.28-3.07.34Z"/>
        <path class="cls-5" d="M122.79,116.31c-1.09-.04-2.21-.13-3.31-.37-.18-.04-.34-.02-.27-.32.36-1.54.76-3.06.84-4.65.01-.27.21-.24.38-.25,1.36-.08,2.73-.16,4.08-.36,1.32-.2,2.62-.49,3.92-.81.47-.12.36-.35.19-.64-1.03-1.74-2.16-3.41-3.49-4.94-.43-.49-.87-.97-1.31-1.45-.14-.15-.24-.27-.05-.48.99-1.13,1.77-2.41,2.54-3.7.17-.29.28-.38.62-.16,2.49,1.7,4.52,3.8,5.57,6.68,1.03,2.81.85,5.52-1.11,7.92-1.48,1.82-3.49,2.77-5.75,3.24-.93.19-1.87.27-2.85.28Z"/>
        <path class="cls-5" d="M108.18,133.1c-2.71-.05-4.87-1.06-6.8-2.63-1.25-1.01-2.28-2.22-3.19-3.55-.18-.26-.18-.38.11-.55,1.31-.79,2.62-1.59,3.77-2.61.27-.24.37,0,.5.12,1.9,1.8,3.98,3.35,6.24,4.67.07.04.14.08.21.12.27.19.44.13.53-.2.46-1.76.82-3.55,1-5.37.09-.91.13-1.82.18-2.73,0-.23.09-.32.31-.33,1.54-.08,3.01-.48,4.5-.83.21-.05.35-.12.41.2.63,3.21.57,6.36-1.01,9.31-1.47,2.75-3.75,4.3-6.76,4.36Z"/>
        <path class="cls-5" d="M75,123.17c0-1.45.13-2.57.34-3.67.05-.28.14-.33.42-.26,1.5.36,3,.74,4.55.82.3.02.29.2.29.4.02,2.65.44,5.25,1.1,7.81.16.63.2.64.76.31,2.27-1.33,4.37-2.89,6.27-4.71.16-.15.27-.29.52-.07,1.16,1.01,2.47,1.8,3.78,2.59.17.11.32.16.15.43-1.72,2.56-3.85,4.66-6.8,5.71-3.05,1.09-5.91.77-8.35-1.53-1.56-1.48-2.4-3.38-2.8-5.47-.17-.88-.23-1.77-.24-2.34Z"/>
        <path class="cls-5" d="M122.87,75c2.69.02,5.2.62,7.34,2.34,2.72,2.18,3.6,5.56,2.32,9.04-1.08,2.94-3.15,5.08-5.71,6.8-.18.12-.27.11-.38-.08-.82-1.35-1.64-2.7-2.69-3.89-.19-.22-.03-.31.09-.43,1.74-1.82,3.25-3.82,4.54-5.98.64-1.07.57-.91-.5-1.19-2.44-.63-4.92-.96-7.43-1.02-.28,0-.37-.1-.39-.36-.09-1.5-.47-2.96-.82-4.41-.08-.31-.05-.42.29-.48,1.11-.2,2.22-.33,3.35-.33Z"/>
        <path class="cls-2" d="M86.22,118.42c.12,1.95,1.02,3.42,2.31,4.68.18.18.13.27-.03.42-1.84,1.73-3.84,3.25-6.02,4.55-.25.15-.34.17-.43-.17-.63-2.44-.98-4.9-1.04-7.42,0-.32.07-.41.4-.41,1.76.01,3.38-.41,4.81-1.66Z"/>
        <path class="cls-2" d="M105.09,72.88c-.1-1.91-1-3.36-2.25-4.64-.12-.12-.3-.2-.07-.41,1.93-1.84,4.04-3.43,6.38-4.78.44,1.5.71,3,.91,4.51.14,1.06.2,2.14.25,3.21,0,.21.09.46-.3.46-1.81-.04-3.48.38-4.91,1.66Z"/>
        <path class="cls-7" d="M105.08,118.42c1.45,1.31,3.13,1.67,4.93,1.7.24,0,.3.08.31.31.08,1.57-.6,6.18-1.17,7.82-1.57-.9-3.05-1.91-4.44-3.07-.62-.52-1.21-1.08-1.83-1.61-.24-.21-.23-.34,0-.56,1.24-1.24,2.1-2.69,2.22-4.59Z"/>
        <path class="cls-7" d="M63.05,109.15c1.34-2.33,2.91-4.42,4.72-6.33.2-.21.31-.17.5.01,1,.98,2.13,1.77,3.53,2.08.33.08.67.12,1.07.18-.77.87-1.24,1.85-1.47,2.95-.14.64-.17,1.29-.19,1.94,0,.22-.05.33-.3.32-2.64-.09-5.25-.44-7.85-1.16Z"/>
        <path class="cls-7" d="M86.21,72.86c-1.43-1.27-3.09-1.66-4.88-1.66-.24,0-.33-.05-.33-.32.05-2.55.42-5.05,1.05-7.51.07-.29.16-.28.38-.15,2.19,1.3,4.21,2.83,6.06,4.57.25.24.08.34-.06.49-.99,1.04-1.79,2.19-2.08,3.63-.06.29-.09.57-.15.95Z"/>
        <path class="cls-2" d="M128.26,109.14c-1.51.45-3.03.71-4.55.92-1.08.15-2.17.2-3.26.25-.27.01-.32-.07-.34-.32-.03-.67-.06-1.33-.21-1.99-.24-1.06-.68-2.03-1.47-2.9.96-.1,1.82-.31,2.63-.75.77-.42,1.43-.96,2.05-1.56.14-.14.22-.19.38-.02,1.84,1.93,3.42,4.04,4.77,6.38Z"/>
        <path class="cls-2" d="M72.81,86.2c-.65.11-1.29.18-1.89.43-1,.42-1.88,1.03-2.64,1.81-.19.2-.3.27-.53.03-1.74-1.84-3.25-3.85-4.55-6.02-.14-.23-.13-.31.15-.38,2.46-.64,4.97-.99,7.52-1.06.23,0,.34.04.35.31.12,2.46.24,2.8,1.59,4.88Z"/>
        <path class="cls-7" d="M118.43,86.21c1.26-1.39,1.65-3.01,1.67-4.74,0-.39.11-.48.49-.47,2.58.09,5.12.46,7.61,1.13.04.13-.05.22-.11.31-1.3,2.2-2.83,4.21-4.57,6.07-.23.25-.33.12-.49-.04-1.02-1.02-2.18-1.8-3.62-2.1-.3-.06-.6-.09-.98-.15Z"/>
        <path class="cls-2" d="M77.53,88.14c-.94-1.34-1.58-2.74-1.86-4.31-.67-3.78,1.45-7.24,5.02-8.05,2.57-.59,4.9.08,7.06,1.49.12.08.24.16.4.26.17-.88.37-1.72.71-2.51.86-1.98,2.16-3.56,4.17-4.45,2.82-1.24,6.01-.37,8.03,2.12,1.14,1.4,1.79,3.01,2.09,4.78.24,0,.37-.19.54-.29,2.18-1.38,4.51-2,7.07-1.36,2.91.72,4.93,3.3,4.98,6.3.04,1.95-.49,3.73-1.52,5.37-.13.21-.27.41-.42.65.68.17,1.34.29,1.98.52,2.37.88,4.21,2.34,5.13,4.76,1.05,2.76.05,5.83-2.45,7.78-1.37,1.07-2.93,1.66-4.67,1.97.58.86,1.11,1.72,1.42,2.68.88,2.65.82,5.22-1.01,7.49-1.58,1.96-3.75,2.6-6.2,2.38-1.69-.15-3.21-.79-4.6-1.76-.06-.05-.14-.08-.24-.14-.27,1.42-.68,2.76-1.47,3.95-1.21,1.84-2.81,3.12-5.03,3.46-2.6.4-4.68-.61-6.36-2.54-1.11-1.29-1.75-2.8-2.06-4.46-.02-.13-.06-.25-.11-.41-.93.64-1.89,1.2-2.95,1.52-2.54.76-4.98.64-7.13-1.05-1.87-1.47-2.57-3.51-2.47-5.84.08-1.82.72-3.46,1.74-4.95.05-.07.09-.13.13-.2.01-.03,0-.06.01-.12-1.59-.27-3.07-.81-4.38-1.78-1.65-1.23-2.76-2.81-3.03-4.88-.31-2.44.62-4.43,2.41-6.04,1.3-1.18,2.85-1.86,4.56-2.19.14-.03.29-.06.49-.11Z"/>
        <path class="cls-1" d="M75.98,108.78c.04-2.01.74-3.78,1.91-5.38.37-.51.34-.57-.29-.67-2.4-.39-4.47-1.38-5.94-3.39-1.97-2.7-1.55-6.23.95-8.46,1.45-1.29,3.13-2.02,5.02-2.31.58-.09.61-.17.25-.66-1.33-1.84-2.08-3.86-1.88-6.16.32-3.54,3.3-6.02,6.86-5.76,1.89.14,3.57.82,5.08,1.94.42.31.52.27.6-.24.34-2.21,1.2-4.16,2.92-5.64,2.84-2.44,6.7-2.09,9.12.77,1.19,1.41,1.87,3.03,2.13,4.84.08.55.18.59.63.26,1.88-1.37,3.95-2.14,6.3-1.88,3.93.44,5.94,3.73,5.62,7.1-.17,1.8-.86,3.39-1.93,4.83-.3.41-.25.51.27.59,2.28.36,4.29,1.25,5.76,3.08,2.25,2.81,1.93,6.38-.73,8.8-1.42,1.29-3.1,2-4.98,2.29-.17.03-.39-.02-.48.17-.09.2.09.33.19.47,1.2,1.61,1.93,3.4,1.93,5.43,0,3.51-2.27,6.03-5.51,6.45-2.37.3-4.46-.45-6.36-1.8-.57-.41-.62-.39-.73.29-.38,2.35-1.36,4.38-3.3,5.84-2.75,2.05-6.29,1.64-8.58-.92-1.29-1.45-2-3.14-2.29-5.03-.08-.52-.18-.56-.6-.25-1.64,1.22-3.45,1.95-5.51,1.96-3.73.02-6.52-2.82-6.46-6.54Z"/>
        <path class="cls-2" d="M110.3,101.72c.88.93,1.62,1.83,2.15,2.88.88,1.72,1.29,3.51.74,5.42-.55,1.93-2.36,3.29-4.38,3.38-2.7.12-4.84-1.05-6.75-2.8-.09-.08-.13-.22-.26-.29-.15.89-.18,1.73-.36,2.55-.36,1.62-.98,3.1-2.17,4.29-2.26,2.27-5.42,2.16-7.51-.26-1.47-1.7-2.04-3.74-2.15-5.94,0-.16-.01-.33-.02-.49,0-.03-.03-.05-.07-.12-.66.61-1.33,1.19-2.08,1.66-1.74,1.08-3.59,1.68-5.66,1.29-2.24-.41-3.84-2.33-3.9-4.61-.07-2.63,1.08-4.74,2.79-6.61.08-.09.22-.14.33-.21-.03-.05-.06-.1-.09-.14-.62-.06-1.24-.1-1.85-.18-1.64-.23-3.16-.79-4.45-1.85-2.89-2.36-2.78-6.12.24-8.31,1.59-1.16,3.4-1.66,5.34-1.77.24-.01.48,0,.83,0-.33-.38-.61-.68-.87-1-1.14-1.36-1.96-2.89-2.21-4.66-.43-3.05,1.06-5.58,4.18-6.04,1.94-.28,3.7.34,5.33,1.36.76.47,1.43,1.05,2.15,1.72.03-1.16.12-2.22.42-3.25.41-1.41,1.04-2.7,2.12-3.73,2.1-2.02,4.95-2.02,7.04,0,1.4,1.36,2.09,3.08,2.38,4.97.1.63.13,1.28.2,1.98.75-.71,1.49-1.34,2.33-1.83,1.4-.82,2.88-1.34,4.54-1.26,3.02.14,5.05,2.44,4.81,5.46-.18,2.25-1.19,4.09-2.67,5.73-.14.15-.27.3-.48.52,1.41.02,2.7.17,3.93.62,1.26.46,2.38,1.12,3.28,2.13,2.06,2.32,1.62,5.59-1.02,7.54-1.5,1.1-3.21,1.62-5.04,1.76-.34.03-.68.04-1.13.07Z"/>
        <path class="cls-3" d="M110.69,101.28c-.26,0-.44,0-.62,0-.18,0-.41-.12-.51.14-.08.22.13.31.25.43.7.67,1.33,1.39,1.84,2.21,1.02,1.63,1.62,3.37,1.27,5.33-.37,2.08-2.09,3.55-4.19,3.62-2.48.08-4.46-1-6.24-2.58-.24-.22-.46-.46-.69-.69-.1-.09-.18-.26-.36-.2-.21.07-.16.25-.16.41.05,1.53-.13,3.02-.71,4.45-.44,1.08-1.05,2.05-1.95,2.83-2.18,1.87-5.19,1.39-6.95-1.12-1.23-1.77-1.64-3.76-1.65-5.87,0-.07.02-.13,0-.2-.03-.16.1-.38-.12-.48-.22-.1-.31.11-.43.23-1.11,1.15-2.35,2.1-3.85,2.69-1.42.55-2.87.76-4.34.27-2.07-.69-3.27-2.8-2.95-5.09.31-2.3,1.49-4.13,3.1-5.73.06-.06.13-.1.18-.16.1-.1.25-.2.16-.37-.08-.16-.24-.13-.39-.13-.92.04-1.82-.02-2.72-.2-1.56-.31-3-.89-4.15-2.03-2.3-2.28-2.04-5.4.6-7.31,1.84-1.32,3.93-1.74,6.14-1.72.19,0,.43.11.52-.13.09-.23-.16-.32-.29-.45-1.55-1.53-2.75-3.27-3.1-5.47-.61-3.78,2.22-6.38,5.96-5.53,2.03.46,3.66,1.57,5.09,3.02.13.13.22.43.49.29.21-.11.11-.35.11-.54-.02-2.23.4-4.34,1.77-6.17.79-1.04,1.79-1.8,3.11-2.04,1.76-.32,3.16.39,4.29,1.67,1.5,1.69,2.01,3.75,2.07,5.96,0,.24,0,.49,0,.73,0,.14-.05.31.11.39.2.1.3-.06.41-.18.58-.65,1.24-1.2,1.95-1.7,1.37-.95,2.85-1.59,4.54-1.59,3.2,0,5.22,2.46,4.67,5.62-.38,2.21-1.54,3.98-3.12,5.51-.13.13-.37.22-.28.46.1.26.34.13.51.12,2.2-.02,4.28.38,6.1,1.71,1.25.91,2.11,2.1,2.2,3.69.1,1.85-.84,3.2-2.28,4.23-1.63,1.17-3.5,1.59-5.4,1.63Z"/>
        <path class="cls-2" d="M100.21,106.65c-.18.82-.45,1.56-.86,2.26-.17.3-.21.68-.3,1.03-.63,2.2-1.7,4.18-3.05,6.01-.29.4-.38.39-.68,0-1.53-2.04-2.66-4.27-3.26-6.76-.02-.06-.03-.13-.06-.19-.42-.72-.75-1.47-.87-2.25-2.22.79-4.17,2.09-6.39,2.78-1.06.33-2.14.54-3.24.72-.41.07-.51-.07-.44-.48.38-2.52,1.18-4.88,2.46-7.1.44-.76.56-1.69,1.1-2.39-1.72-.74-3.49-1.26-5.2-1.94-1.46-.58-2.79-1.4-4.05-2.34-.43-.31-.43-.38,0-.7,2.03-1.52,4.25-2.64,6.72-3.24.1-.02.2-.04.28-.09.68-.43,1.43-.69,2.29-.88-.79-1.01-.97-2.24-1.59-3.3-1.14-1.96-1.72-4.13-2.04-6.38-.05-.37.13-.42.43-.37,2.48.38,4.85,1.1,7.01,2.41.24.14.49.24.76.31.65.17,1.23.49,1.89.91.06-1.18.8-2.06,1.08-3.14.6-2.28,1.7-4.32,3.1-6.21.23-.32.39-.36.65-.01,1.51,2.03,2.65,4.24,3.25,6.71.03.12.06.26.12.37.43.68.69,1.43.84,2.15,2.31-.83,4.37-2.22,6.75-2.89.97-.27,1.96-.45,2.96-.62.45-.08.4.21.36.48-.23,1.47-.56,2.91-1.11,4.29-.14.36-.26.74-.46,1.08-.78,1.33-1.25,2.81-2.01,4.25,1.08.05,1.92.77,2.94,1.03,2.33.6,4.41,1.72,6.35,3.14.32.23.36.41.01.66-2.02,1.5-4.21,2.64-6.67,3.24-.14.04-.3.05-.42.13-.68.44-1.43.68-2.15.84.83,2.28,2.19,4.32,2.87,6.65.28.97.46,1.96.64,2.96.08.43-.1.52-.48.46-2.2-.34-4.31-.96-6.28-2.02-.58-.32-1.16-.64-1.81-.82-.52-.14-.97-.44-1.47-.76Z"/>
        <path class="cls-4" d="M107.32,87.8c0,1.17-.42,2.19-1.09,3.13-.29.42-.27.48.22.57,1.16.21,2.21.66,3.06,1.51,1.58,1.6,1.49,4.02-.21,5.49-.8.69-1.72,1.09-2.75,1.28-.62.11-.63.14-.26.68.79,1.14,1.21,2.38.97,3.78-.37,2.1-2.23,3.38-4.34,3.05-.94-.15-1.78-.51-2.54-1.06-.43-.3-.51-.26-.59.27-.2,1.23-.7,2.31-1.63,3.14-1.72,1.53-4.1,1.27-5.54-.57-.6-.76-.93-1.63-1.11-2.57-.1-.56-.15-.57-.63-.24-1.1.78-2.32,1.22-3.67,1.02-2.36-.36-3.66-2.4-3.11-4.8.17-.76.5-1.44.95-2.07.33-.47.3-.53-.25-.63-1.01-.18-1.94-.55-2.72-1.23-1.9-1.64-1.88-4.24.05-5.85.8-.67,1.72-1.03,2.73-1.21.49-.08.52-.16.22-.58-.6-.82-.95-1.72-1.08-2.74-.3-2.44,1.75-4.49,4.19-4.19.99.12,1.88.47,2.7,1.05.48.34.53.32.63-.24.24-1.32.78-2.49,1.87-3.32,1.65-1.26,3.7-1.05,5.09.49.73.81,1.15,1.77,1.32,2.84.09.53.16.56.59.26,1.12-.78,2.33-1.25,3.71-1.04,2,.3,3.24,1.75,3.23,3.77Z"/>
        <path class="cls-6" d="M87.75,107.77c-1.32.75-2.63,1.23-4,1.59-.64.17-1.3.27-1.95.41-.23.05-.32-.01-.27-.27.35-2.04.95-4,1.99-5.93.26,2.57,1.61,3.97,4.23,4.2Z"/>
        <path class="cls-6" d="M103.51,83.54c1.98-1.07,3.96-1.69,6.03-2.02.17-.03.28-.02.24.21-.32,2.09-.96,4.06-2.03,6.07-.05-1.27-.4-2.27-1.21-3.07-.79-.79-1.79-1.14-3.04-1.2Z"/>
        <path class="cls-6" d="M107.74,103.49c.19.34.32.56.42.79.76,1.61,1.29,3.29,1.58,5.05.04.25.15.53-.32.44-1.95-.35-3.82-.91-5.57-1.84-.07-.04-.16-.04-.18-.18,1.12-.05,2.12-.4,2.91-1.21.78-.8,1.14-1.79,1.16-3.04Z"/>
        <path class="cls-6" d="M83.54,87.79c-1.07-1.97-1.68-3.95-2.02-6.01-.03-.2,0-.31.23-.27,2.08.35,4.06.96,6.03,2.03-1.23.06-2.24.4-3.04,1.21-.79.8-1.14,1.79-1.2,3.04Z"/>
        <path class="cls-12" d="M98.65,109.8c-.52,1.72-1.22,3.23-2.13,4.64-.21.33-.45.64-.65.97-.17.28-.27.22-.43-.01-1.11-1.52-1.97-3.17-2.58-4.95-.05-.15-.11-.29-.14-.51.89.63,1.82,1.14,2.96,1.13,1.13-.01,2.06-.48,2.99-1.27Z"/>
        <path class="cls-12" d="M109.93,92.76c2.09.55,3.96,1.57,5.7,2.85-.82.93-4.17,2.67-5.72,2.98,1.53-2.39,1.53-4.12.03-5.82Z"/>
        <path class="cls-12" d="M95.64,75.63c1.35,1.76,2.33,3.66,2.98,5.79-2.67-1.6-3.58-1.6-5.95.02.64-2.14,1.64-4.02,2.97-5.81Z"/>
        <path class="cls-12" d="M81.31,92.77c-1.45,1.91-1.47,3.8-.03,5.74-2.08-.55-3.91-1.56-5.66-2.84,1.73-1.33,3.59-2.3,5.69-2.9Z"/>
        <path class="cls-2" d="M86.7,99.35c-.97-.04-1.8-.19-2.58-.54-.92-.41-1.68-1.02-2.11-1.94-.62-1.34-.17-2.82,1.12-3.8,1.02-.77,2.21-1.07,3.55-1.12-.2-.25-.37-.46-.53-.67-.71-.95-1.19-1.98-1.2-3.19,0-2.1,1.66-3.49,3.73-3.13,1.12.19,2.09.7,2.95,1.43.09.08.19.16.33.29.05-.98.21-1.87.6-2.7.35-.74.84-1.36,1.53-1.8,1.26-.8,2.9-.54,3.93.64.79.9,1.18,1.97,1.3,3.15.02.19.04.38.07.67.21-.17.36-.3.52-.43.83-.67,1.75-1.12,2.81-1.28,2.35-.35,4.08,1.53,3.6,3.89-.24,1.17-.83,2.14-1.66,3.07.42.05.78.09,1.14.15,1.17.21,2.22.65,3,1.58,1.18,1.39,1.04,3.19-.35,4.38-.92.79-2.01,1.17-3.21,1.28-.17.02-.36-.06-.53.12.58.68,1.1,1.4,1.4,2.26.3.86.39,1.72.13,2.59-.46,1.54-2.06,2.38-3.75,2.03-1.17-.24-2.14-.82-3.05-1.64-.17.43-.12.85-.2,1.25-.16.74-.42,1.43-.84,2.06-1.39,2.11-4.01,2.12-5.43.03-.6-.88-.89-1.85-1-3.37-.24.19-.46.38-.69.55-.82.62-1.72,1.07-2.75,1.16-2.52.22-4.08-1.71-3.43-4.18.28-1.05.84-1.93,1.62-2.81Z"/>
        <path class="cls-7" d="M104.59,98.94c-.19.1-.57-.21-.69.14-.11.3.27.44.45.63.9.99,1.57,2.09,1.6,3.47.04,1.85-1.45,3.06-3.27,2.73-1.27-.23-2.29-.89-3.19-1.78-.12-.12-.2-.34-.43-.24-.22.1-.13.31-.13.48.01,1.2-.22,2.33-.89,3.35-1.25,1.9-3.53,1.91-4.78,0-.68-1.03-.9-2.18-.9-3.39,0-.15.08-.34-.12-.43-.19-.08-.29.08-.41.2-.84.87-1.81,1.53-3.02,1.78-2.3.47-3.92-1.23-3.36-3.52.28-1.13.9-2.04,1.71-2.86.12-.12.35-.2.26-.42-.09-.25-.33-.14-.51-.14-1.21,0-2.36-.24-3.38-.93-1.81-1.23-1.83-3.41-.04-4.67,1.03-.72,2.19-.96,3.42-.97.18,0,.42.12.52-.14.08-.22-.15-.3-.27-.42-.87-.89-1.56-1.89-1.75-3.15-.33-2.28,1.33-3.76,3.56-3.2,1.12.28,2.04.9,2.85,1.72.12.12.21.34.43.24.21-.1.12-.31.12-.48,0-1.21.24-2.36.93-3.38,1.21-1.82,3.41-1.86,4.67-.08.72,1.02.98,2.18.97,3.42,0,.18-.1.43.13.53.25.11.33-.15.46-.28.92-.89,1.95-1.56,3.25-1.76,2.01-.29,3.52,1.26,3.15,3.26-.21,1.14-.76,2.1-1.56,2.93-.1.11-.21.21-.31.31-.11.1-.22.21-.14.38.07.16.22.1.34.1.96,0,1.88.12,2.76.51.52.23,1,.54,1.39.97,1.03,1.14,1.02,2.58-.06,3.67-1.01,1.03-2.3,1.35-3.74,1.42Z"/>
        <path class="cls-2" d="M89.56,98.17c-2.27-.12-4.21-.87-5.96-2.15-.46-.34-.46-.39,0-.73,1.75-1.28,3.69-2.03,5.89-2.15-.02-.2-.18-.3-.29-.43-1.29-1.56-2.03-3.36-2.32-5.35-.08-.53-.05-.56.5-.48,1.94.28,3.69,1,5.23,2.24.16.13.32.26.53.43.1-1.65.52-3.15,1.28-4.56.27-.5.58-.98.92-1.44.29-.39.37-.39.67.02,1.28,1.76,2.06,3.71,2.16,5.9.16.04.22-.08.29-.15,1.6-1.38,3.47-2.14,5.54-2.46.42-.07.51.05.45.46-.33,2.17-1.18,4.11-2.7,5.8,1.34.09,2.58.36,3.76.89.76.34,1.48.75,2.15,1.24.51.37.51.43.02.79-1.75,1.25-3.67,2.02-5.83,2.12-.06.14.07.2.13.28,1.4,1.61,2.15,3.51,2.48,5.59.07.4-.09.47-.46.42-2.18-.33-4.12-1.16-5.83-2.71-.04.93-.19,1.76-.43,2.58-.38,1.26-.99,2.4-1.76,3.46-.25.34-.43.31-.66-.02-1.28-1.77-2.06-3.72-2.18-5.91-.13-.08-.18.05-.24.1-1.62,1.41-3.53,2.18-5.63,2.51-.36.06-.46-.06-.41-.42.29-2.01,1.02-3.82,2.31-5.4.11-.13.22-.27.38-.47Z"/>
        <path class="cls-6" d="M101.47,95.68c0,3.22-2.62,5.82-5.85,5.8-3.21-.02-5.82-2.66-5.8-5.87.02-3.18,2.67-5.79,5.85-5.78,3.22,0,5.82,2.62,5.81,5.86Z"/>
        <path class="cls-6" d="M101.55,97.75c.45-1.41.46-2.78,0-4.15,1.54-.19,4.47.84,5.89,2.08-1.76,1.27-3.69,2.03-5.9,2.08Z"/>
        <path class="cls-4" d="M95.65,107.48c-1.3-1.78-2.03-3.7-2.11-5.92,1.41.44,2.79.46,4.2,0-.06,2.22-.79,4.15-2.1,5.93Z"/>
        <path class="cls-3" d="M92.94,90.01c-1.23.62-2.18,1.52-2.82,2.74-.16.3-.25.09-.34-.02-.53-.59-.99-1.24-1.37-1.95-.53-1.01-.89-2.08-1.09-3.21-.04-.22-.03-.28.23-.24,1.88.26,4.13,1.37,5.39,2.69Z"/>
        <path class="cls-12" d="M89.75,97.75c-2.23-.06-4.16-.8-5.92-2.1,1.66-1.23,3.49-1.94,5.52-2.09.14,0,.45-.14.33.25-.39,1.3-.35,2.6.07,3.94Z"/>
        <path class="cls-4" d="M95.65,83.82c1.3,1.78,2.04,3.71,2.1,5.93-1.36-.42-2.67-.46-3.99-.05-.31.1-.21-.15-.21-.29.12-1.77.66-3.41,1.62-4.9.14-.22.29-.43.46-.69Z"/>
        <path class="cls-6" d="M92.97,101.3c-1.54,1.47-3.34,2.29-5.37,2.68-.21.04-.33.05-.27-.25.34-1.91,1.1-3.62,2.39-5.08.17-.19.27-.35.46.02.62,1.17,1.56,2.02,2.78,2.64Z"/>
        <path class="cls-12" d="M101.3,92.97c-.65-1.32-1.62-2.28-2.92-2.95.34-.41.74-.7,1.14-.98,1.27-.88,2.68-1.43,4.21-1.71.3-.05.3.05.26.27-.38,2.02-1.2,3.83-2.68,5.38Z"/>
        <path class="cls-3" d="M98.32,101.35c1.88-1.27,2.11-1.5,2.99-3,1.35,1.4,2.17,3.07,2.58,4.94.16.75.16.76-.58.6-1.76-.38-3.35-1.13-4.7-2.34-.08-.07-.18-.13-.29-.2Z"/>
        <path class="cls-2" d="M100.39,95.65c0,2.65-2.13,4.76-4.79,4.74-2.58-.02-4.7-2.16-4.7-4.75,0-2.62,2.17-4.77,4.81-4.75,2.59.02,4.69,2.15,4.69,4.76Z"/>
        <path class="cls-4" d="M99.99,95.62c.02,2.38-1.94,4.35-4.33,4.37-2.35.02-4.32-1.94-4.33-4.3,0-2.42,1.96-4.4,4.36-4.38,2.32.02,4.28,1.99,4.29,4.31Z"/>
      </g>
    </g>
  </g>
</svg>